<svg xmlns="http://www.w3.org/2000/svg" width="16" height="16" viewBox="0 0 16 16"><g fill="none" fill-rule="evenodd"><path fill="#37474F" fill-rule="nonzero" d="M10.4827586,7.13793103 L6.86206897,7.13793103 L6.86206897,3.51724138 C6.86206897,3.04103448 6.4762069,3 6,3 C5.5237931,3 5.13793103,3.04103448 5.13793103,3.51724138 L5.13793103,7.13793103 L1.51724138,7.13793103 C1.04103448,7.13793103 1,7.5237931 1,8 C1,8.4762069 1.04103448,8.86206897 1.51724138,8.86206897 L5.13793103,8.86206897 L5.13793103,12.4827586 C5.13793103,12.9589655 5.5237931,13 6,13 C6.4762069,13 6.86206897,12.9589655 6.86206897,12.4827586 L6.86206897,8.86206897 L10.4827586,8.86206897 C10.9589655,8.86206897 11,8.4762069 11,8 C11,7.5237931 10.9589655,7.13793103 10.4827586,7.13793103 Z"/><path fill="#37474F" fill-rule="nonzero" d="M22,10 L20,10 L20,9 L8,9 L8,7 L20,7 L20,6 L22,6 L22,10 Z M6,6 L8,6 L8,10 L6,10 L6,6 Z" transform="rotate(90 14 8)"/></g></svg>