<svg xmlns="http://www.w3.org/2000/svg" width="16" height="16" viewBox="0 0 16 16"><g fill="none" fill-rule="evenodd"><path fill="currentColor" fill-rule="nonzero" d="M14.4827586,7.13793103 L10.862069,7.13793103 L10.862069,3.51724138 C10.862069,3.04103448 10.4762069,3 10,3 C9.5237931,3 9.13793103,3.04103448 9.13793103,3.51724138 L9.13793103,7.13793103 L5.51724138,7.13793103 C5.04103448,7.13793103 5,7.5237931 5,8 C5,8.4762069 5.04103448,8.86206897 5.51724138,8.86206897 L9.13793103,8.86206897 L9.13793103,12.4827586 C9.13793103,12.9589655 9.5237931,13 10,13 C10.4762069,13 10.862069,12.9589655 10.862069,12.4827586 L10.862069,8.86206897 L14.4827586,8.86206897 C14.9589655,8.86206897 15,8.4762069 15,8 C15,7.5237931 14.9589655,7.13793103 14.4827586,7.13793103 Z"/><path fill="#37474F" fill-rule="nonzero" d="M10,10 L8,10 L8,9 L-4,9 L-4,7 L8,7 L8,6 L10,6 L10,10 Z M-6,6 L-4,6 L-4,10 L-6,10 L-6,6 Z" transform="rotate(90 2 8)"/></g></svg>