<svg xmlns="http://www.w3.org/2000/svg" width="16" height="16" viewBox="0 0 16 16"><path fill="#37474F" d="M12.4827586 5.13793103 8.86206897 5.13793103 8.86206897 1.51724138C8.86206897 1.04103448 8.4762069 1 8 1 7.5237931 1 7.13793103 1.04103448 7.13793103 1.51724138L7.13793103 5.13793103 3.51724138 5.13793103C3.04103448 5.13793103 3 5.5237931 3 6 3 6.4762069 3.04103448 6.86206897 3.51724138 6.86206897L7.13793103 6.86206897 7.13793103 10.4827586C7.13793103 10.9589655 7.5237931 11 8 11 8.4762069 11 8.86206897 10.9589655 8.86206897 10.4827586L8.86206897 6.86206897 12.4827586 6.86206897C12.9589655 6.86206897 13 6.4762069 13 6 13 5.5237931 12.9589655 5.13793103 12.4827586 5.13793103ZM2 12 2 13 14 13 14 15 2 15 2 16 0 16 0 12 2 12ZM14 12 16 12 16 16 14 16 14 12Z"/></svg>