<svg xmlns="http://www.w3.org/2000/svg" width="16" height="16" viewBox="0 0 16 16"><path fill="currentColor" d="M7.99902782,0 C8.37329119,0.000929993942 8.69518455,-0.00474045676 8.90495029,0.123911779 C9.00420417,0.184785557 9.03537171,0.299565656 9.03537171,0.455045412 L9.03537171,0.455045412 L9.03537171,6.96462906 L15.5449554,6.96462906 C15.7019157,6.96462906 15.817211,6.99688846 15.8778498,7.09795326 C15.9914389,7.28726831 15.9996621,7.5652113 16,7.8727076 L16,8.12729316 C15.9996621,8.43478945 15.9914389,8.71273244 15.8778498,8.90204749 C15.817211,9.00311229 15.7019157,9.03537169 15.5449554,9.03537169 L15.5449554,9.03537169 L9.03537171,9.03537169 L9.03537171,15.5449553 C9.03537171,15.7019157 9.00311232,15.8172109 8.90204751,15.8778498 C8.71273247,15.9914388 8.43478947,15.9996621 8.12729318,16 L7.87270762,16 C7.56521132,15.9996621 7.28726833,15.9914388 7.09795329,15.8778498 C6.99688848,15.8172109 6.96462909,15.7019157 6.96462909,15.5449553 L6.96462909,15.5449553 L6.96462909,9.03537169 L0.455045436,9.03537169 C0.298085096,9.03537169 0.18278984,9.00311229 0.122150959,8.90204749 C0.00856193022,8.71273244 0.000338693802,8.43478945 0,8.12796591 L0,8.00098759 C0.000917386326,7.63757709 -0.00342455296,7.31001537 0.124457509,7.0968786 C0.185010572,6.99595682 0.29968502,6.96462906 0.455045436,6.96462906 L0.455045436,6.96462906 L6.96462909,6.96462906 L6.96462909,0.455045412 C6.96462909,0.298085073 6.99688848,0.182789817 7.09795329,0.122150935 C7.28726833,0.0085619067 7.56521132,0.000338670279 7.87204484,0 L7.99902782,0 Z"/></svg>