<svg xmlns="http://www.w3.org/2000/svg" width="16" height="16" viewBox="0 0 16 16"><path fill="#37474F" d="M15.138608,0 C15.3763522,0 15.5917308,0.0964242066 15.7476533,0.252346702 C15.8818707,0.386564069 15.9719517,0.564844118 15.9944775,0.763489346 L15.998688,0.813561213 L16,10.379536 C16,10.576266 15.9326679,10.7664595 15.8109102,10.9181642 L15.7793443,10.9552701 L10.9893072,15.7469255 C10.8504926,15.8864824 10.6683122,15.9732852 10.4744569,15.9947597 L10.4257682,15.99876 L0.861392029,16 C0.623647829,16 0.408269197,15.9035758 0.252346702,15.7476533 C0.118128368,15.613435 0.0280469992,15.4351533 0.0055219858,15.2365064 L0.00131170941,15.1864341 L0,0.861392029 C0,0.623647829 0.0964242066,0.408269197 0.252346702,0.252346702 C0.386565036,0.118128368 0.564846685,0.0280469993 0.763493637,0.00552198585 L0.813565938,0.00131170944 L15.138608,0 Z M14.2772159,1.72278406 L1.72278406,1.72278406 L1.72278406,14.2772159 L9.51820583,14.2772159 L9.51945696,10.3316865 L9.52366836,10.2816164 C9.54619738,10.0829779 9.63627711,9.90470421 9.77049066,9.77049066 C9.92641316,9.61456817 10.1417918,9.51814396 10.379536,9.51814396 L10.379536,9.51814396 L14.2772159,9.51814396 L14.2772159,1.72278406 Z M13.0591253,11.240928 L11.240928,11.240928 L11.240928,13.0591253 L13.0591253,11.240928 Z"/></svg>