<svg xmlns="http://www.w3.org/2000/svg" width="16" height="16" viewBox="0 0 16 16"><path fill="currentColor" d="M13.0750965,10.3249253 C13.0895253,10.5436685 13.0185608,10.7677677 12.8590153,10.9453128 L8.38197226,15.9230769 L3.30780775,10.9595998 C3.13915489,10.779918 3.06408663,10.5499006 3.07870887,10.3256033 C3.09297774,10.1067264 3.19267267,9.89335057 3.37340491,9.73787567 C3.5549586,9.58121363 3.78392966,9.51178804 4.00738113,9.52573323 C4.23112141,9.53969644 4.44931505,9.6373475 4.60859186,9.81459391 L7.2020134,12.6976946 L7.2020134,0.779198854 C7.2020134,0.542817982 7.29991268,0.328735582 7.45828758,0.173778276 C7.61653407,0.0189465988 7.83517202,-0.0769230769 8.07701715,-0.0769230769 C8.31851818,-0.0769230769 8.53730884,0.0188969669 8.69569819,0.17386841 C8.85408754,0.328839853 8.9520209,0.542909201 8.9520209,0.779198854 L8.9520209,12.6975894 L11.5449023,9.81477761 C11.7043442,9.6373475 11.9225379,9.53969644 12.1462782,9.52573323 C12.3697296,9.51178804 12.5987007,9.58121363 12.7792342,9.73699775 C12.9609376,9.89293223 13.0606699,10.1062159 13.0750965,10.3249253 Z" transform="rotate(90 8.077 7.923)"/></svg>