<svg xmlns="http://www.w3.org/2000/svg" width="16" height="16" viewBox="0 0 16 16"><path fill="currentColor" d="M14,2 L13.333374,2 L13.333374,0.666625969 C13.333374,0.298706063 13.034668,0 12.666626,0 L12,0 C11.631958,0 11.333374,0.298706062 11.333374,0.666625969 L11.333374,2 L4.66662597,2 L4.66662597,0.666625969 C4.66662597,0.298706063 4.368042,0 4,0 L3.33337403,0 C2.96533203,0 2.66662597,0.298706062 2.66662597,0.666625969 L2.66662597,2 L2,2 C0.897338875,2 -8.8817842e-16,2.89733887 -8.8817842e-16,4 L-8.8817842e-16,14 C-8.8817842e-16,15.1026611 0.897338875,16 2,16 L14,16 C15.1026611,16 16,15.1026611 16,14 L16,4 C16,2.89733887 15.1026611,2 14,2 Z M14.666626,14 C14.666626,14.3673096 14.3673096,14.666626 14,14.666626 L2,14.666626 C1.63269044,14.666626 1.33337403,14.3673096 1.33337403,14 L1.33337403,6.69335938 L14.666626,6.69335938 L14.666626,14 Z"/></svg>