<svg xmlns="http://www.w3.org/2000/svg" xmlns:xlink="http://www.w3.org/1999/xlink" width="16" height="16" viewBox="0 0 16 16"><defs><path id="a" d="M4.08832469,15.9101614 C3.98274071,15.9696482 3.86526336,16 3.74622374,16 C3.4977174,16 3.26580785,15.8686321 3.14105997,15.6498333 C2.9518587,15.3180849 3.06922707,14.8969135 3.40321782,14.7089642 L5.60110792,13.4723833 C5.76123722,13.382319 5.95084156,13.358944 6.1281832,13.4075077 C6.73349357,13.5730982 7.36337223,13.6570846 8.00024764,13.6570846 C11.6470382,13.6570846 14.6099984,10.9006829 14.6099984,7.51849865 C14.6099984,4.13662301 11.6470669,1.38054515 8.00024764,1.38054515 C4.35313487,1.38054515 1.39000157,4.13663322 1.39000157,7.51856892 C1.39000157,9.32755049 2.24365181,11.0360247 3.733896,12.2065225 C4.03496376,12.4429587 4.08597584,12.877084 3.847924,13.1760987 C3.6099005,13.4751942 3.17283803,13.5259152 2.87165594,13.2893507 C1.04733053,11.8565074 0,9.75276851 0,7.51849865 C0,3.37051715 3.5907886,0 8.00024764,0 C12.4094758,0 16,3.37050009 16,7.51849865 C16,11.6668443 12.4094797,15.0376297 8.00024764,15.0376297 C7.33753569,15.0376297 6.68035255,14.9614326 6.0425091,14.8107109 L4.08832469,15.9101614 Z M8.6946824,5.69045191 L8.6946824,7.85756462 L11.646657,5.37330657 C11.9394745,5.12684122 12.3779891,5.16287458 12.6261753,5.45373831 C12.8743129,5.74463706 12.8380937,6.18015354 12.5452561,6.42663579 L8.44901103,9.87388218 C8.32275323,9.98013547 8.1634693,10.0375207 7.99961086,10.0375207 C7.89913068,10.0375207 7.79960544,10.0159364 7.70751697,9.97356262 C7.46187491,9.86055006 7.30468083,9.61611924 7.30468083,9.3472481 L7.30468083,7.18015359 L4.35315028,9.66423642 C4.06039157,9.91073028 3.62179374,9.87474936 3.37362902,9.58391087 C3.12546932,9.29307827 3.1616921,8.85754814 3.45452634,8.61106871 L7.55044029,5.16380324 C7.75706691,4.98996365 8.04638168,4.95105511 8.29195089,5.06415299 C8.53762079,5.17719417 8.69477505,5.42159005 8.6946824,5.69045191 Z"/></defs><use xlink:href="#a" fill="#37474F"/></svg>