<svg xmlns="http://www.w3.org/2000/svg" width="16" height="16" viewBox="0 0 16 16"><path fill="#37474F" d="M15.8838112,5.13046181 L14.1624566,4.05736383 C14.0951224,4.01566188 14.0084547,3.99820525 13.9191202,4.00014487 C13.8311191,4.00499394 13.7491181,4.03554304 13.6917841,4.0850035 L7.99838027,8.95879824 L2.30897651,4.0850035 C2.25097579,4.03554304 2.16897477,4.00499394 2.08097368,4.00014487 C1.99563929,3.99869015 1.9049715,4.01566188 1.83763734,4.05736383 L0.116282696,5.13046181 C0.0489485287,5.17264867 0.00761468364,5.23229216 0.000947934448,5.29678472 C-0.00571881475,5.36127728 0.0229482068,5.42480002 0.0816155997,5.47329067 L7.74704382,11.9162427 C7.81037794,11.9690975 7.90237908,12.0001315 7.99904694,12.0001315 C8.09571481,12.0001315 8.18771595,11.9695824 8.25105006,11.9162427 L15.919145,5.47329067 C15.9771457,5.42431512 16.0058127,5.36127728 15.9998127,5.29678472 C15.9931459,5.23229216 15.9511454,5.17264867 15.8838112,5.13046181 Z"/></svg>