<svg xmlns="http://www.w3.org/2000/svg" width="16" height="16" viewBox="0 0 16 16"><path fill="#37474F" d="M8,0 C12.411198,0 16,3.58880198 16,8 C16,12.411198 12.411198,16 8,16 C3.58880198,16 2.26840768e-12,12.411198 2.26840768e-12,8 C2.26840768e-12,3.58880198 3.58880198,0 8,0 Z M8,1.70226431 C4.52745986,1.70226431 1.70209963,4.52729518 1.70209963,8 C1.70209963,11.4727048 4.52745986,14.2977357 8,14.2977357 C11.4725401,14.2977357 14.2979004,11.4727048 14.2979004,8 C14.2979004,4.52729518 11.4725401,1.70226431 8,1.70226431 Z M7.91535611,2.77151091 C8.27912721,2.77151091 8.5740634,3.0664471 8.5740634,3.4302182 L8.5740634,3.4302182 L8.5740634,7.75298477 L12.1692878,7.75298477 C12.5330589,7.75298477 12.8279951,8.04792096 12.8279951,8.41169205 C12.8279951,8.77546315 12.5330589,9.07039934 12.1692878,9.07039934 L12.1692878,9.07039934 L7.91535611,9.07039934 C7.55158501,9.07039934 7.25664883,8.77546315 7.25664883,8.41169205 L7.25664883,8.41169205 L7.25664883,3.4302182 C7.25664883,3.0664471 7.55158501,2.77151091 7.91535611,2.77151091 Z"/></svg>