<svg xmlns="http://www.w3.org/2000/svg" width="16" height="16" viewBox="0 0 16 16"><path fill="#37474F" d="M9.29701647,0.000716185476 C9.36150903,-0.00595056372 9.42503177,0.0227164578 9.47352242,0.0813838507 L15.9164744,7.74681208 C15.9693292,7.81014619 16.0003633,7.90214733 16.0003633,7.99881519 C16.0003633,8.09548306 15.9698141,8.1874842 15.9164744,8.25081831 L9.47352242,15.9189132 C9.42454687,15.976914 9.36150903,16.005581 9.29701647,15.9995809 C9.23252391,15.9929142 9.17288042,15.9509136 9.13069356,15.8835795 L8.05759558,14.1622248 C8.01589363,14.0948907 7.99843699,14.0082229 8.00037662,13.9188885 C8.00522568,13.8308874 8.03577479,13.7488864 8.08523525,13.6915523 L12.95903,7.99814852 L8.08523525,2.30874476 C8.03577479,2.25074404 8.00522568,2.16874302 8.00037662,2.08074193 C7.9989219,1.99540754 8.01589363,1.90473976 8.05759558,1.83740559 L9.13069356,0.116050947 C9.17288042,0.0487167797 9.23252391,0.00738293467 9.29701647,0.000716185476 Z M6.70357853,0.000716185476 C6.76807109,0.00738293467 6.82771458,0.0487167797 6.86990144,0.116050947 L6.86990144,0.116050947 L7.94299942,1.83740559 C7.98470137,1.90473976 8.0016731,1.99540754 8.00021838,2.08074193 C7.99536932,2.16874302 7.96482021,2.25074404 7.91535975,2.30874476 L7.91535975,2.30874476 L3.04156501,7.99814852 L7.91535975,13.6915523 C7.96482021,13.7488864 7.99536932,13.8308874 8.00021838,13.9188885 C8.00215801,14.0082229 7.98470137,14.0948907 7.94299942,14.1622248 L7.94299942,14.1622248 L6.86990144,15.8835795 C6.82771458,15.9509136 6.76807109,15.9929142 6.70357853,15.9995809 C6.63908597,16.005581 6.57604813,15.976914 6.52707258,15.9189132 L6.52707258,15.9189132 L0.084120565,8.25081831 C0.0307808554,8.1874842 0.000231748974,8.09548306 0.000231748974,7.99881519 C0.000231748974,7.90214733 0.0312657618,7.81014619 0.084120565,7.74681208 L0.084120565,7.74681208 L6.52707258,0.0813838507 C6.57556323,0.0227164578 6.63908597,-0.00595056372 6.70357853,0.000716185476 Z"/></svg>