<svg xmlns="http://www.w3.org/2000/svg" width="16" height="16" viewBox="0 0 16 16"><path fill="#37474F" d="M6.07305799,-7.10542736e-15 L14.6165972,-7.10542736e-15 C14.9979936,-7.10542736e-15 15.3439007,0.155029639 15.5944205,0.405548711 C15.8449416,0.656069042 16,1.00198571 16,1.38339936 L16,9.92691186 C16,10.3083263 15.8449678,10.6542503 15.5944481,10.9047769 C15.3439226,11.1553093 14.998,11.3103448 14.6165972,11.3103448 L11.8265304,11.3103448 L11.8265304,9.74400315 L14.3405169,9.74400315 L14.4305632,1.65944522 L6.34230661,1.5693579 L6.2461842,4.25426608 L4.68965517,4.25426608 L4.68965517,1.38339936 C4.68965517,1.00199548 4.84468427,0.656073123 5.09520946,0.405548711 C5.34572769,0.155031272 5.69164228,-7.10542736e-15 6.07305799,-7.10542736e-15 Z M11.3103448,6.07308468 L11.3103448,14.6166041 C11.3103448,14.9980051 11.1553096,15.3439261 10.9047776,15.5944504 C10.6542518,15.8449687 10.3083287,16 9.92691532,16 L1.38342951,16 C1.0020162,16 0.6561034,15.8449698 0.405581358,15.5944478 C0.155058374,15.3439248 0,14.9980018 0,14.6165705 L0,6.07308468 C0,5.69166814 0.155033707,5.34574243 0.405560483,5.09521566 C0.656087259,4.84468888 1.00201297,4.68965517 1.38342951,4.68965517 L9.92688172,4.68965517 C10.3083009,4.68965517 10.6542496,4.84469278 10.90479,5.09522549 C11.1553288,5.34575667 11.3103448,5.69168468 11.3103448,6.07308468 Z M9.73793103,14.4006379 L9.73793103,6.26206897 L1.57241379,6.26206897 L1.57241379,14.4274051 L9.73793103,14.4006379 Z"/></svg>