<svg xmlns="http://www.w3.org/2000/svg" width="16" height="16" viewBox="0 0 16 16"><path fill="#37474F" d="M6.99370537,0.42365047 C6.99370537,0.281770177 7.01858158,0.173674659 7.11137584,0.117998104 C7.32330531,-0.00915958044 7.64851377,0 8,0 C8.35148623,0 8.67669469,-0.00915958044 8.88862416,0.117998104 C8.98141842,0.173674659 9.00629463,0.281770177 9.00629463,0.42365047 L9.00629463,0.42365047 L9.00629463,6.99370537 L15.5763495,6.99370537 C15.7182298,6.99370537 15.8263253,7.01858158 15.8820019,7.11137584 C15.9922052,7.29504805 16,7.56380536 16,7.86101321 L16,8 C16,8.35148623 16.0091596,8.67669469 15.8820019,8.88862416 C15.8263253,8.98141842 15.7182298,9.00629463 15.5763495,9.00629463 L15.5763495,9.00629463 L9.00629463,9.00629463 L9.00629463,15.5763495 C9.00629463,15.7182298 8.98141842,15.8263253 8.88862416,15.8820019 C8.67669469,16.0091596 8.35148623,16 8,16 L8,16 L7.86101321,16 C7.56380536,16 7.29504805,15.9922052 7.11137584,15.8820019 C7.01858158,15.8263253 6.99370537,15.7182298 6.99370537,15.5763495 L6.99370537,15.5763495 L6.99370537,9.00629463 L0.42365047,9.00629463 C0.281770177,9.00629463 0.173674659,8.98141842 0.117998104,8.88862416 C-0.00915958044,8.67669469 0,8.35148623 0,8 C0,7.64851377 -0.00915958044,7.32330531 0.117998104,7.11137584 C0.173674659,7.01858158 0.281770177,6.99370537 0.42365047,6.99370537 L0.42365047,6.99370537 L6.99370537,6.99370537 L6.99370537,0.42365047 Z" transform="rotate(45 8 8)"/></svg>