<svg xmlns="http://www.w3.org/2000/svg" width="16" height="16" viewBox="0 0 16 16"><path fill="#37474F" d="M15.9242259,7.61816996 C15.873241,7.49615782 15.8002212,7.3851631 15.7071591,7.292101 L12.7077232,4.29254785 C12.3167217,3.90248405 11.6845089,3.90248405 11.2935075,4.29254785 C10.9023888,4.68366652 10.9023888,5.31669975 11.2935075,5.70676356 L12.5867659,7.00002198 L3.4132341,7.00002198 L4.70649252,5.70676356 C5.09761118,5.31669975 5.09761118,4.68354931 4.70649252,4.29254785 C4.31549106,3.90248405 3.68327827,3.90248405 3.29227681,4.29254785 L0.29284087,7.2919838 C0.199778772,7.38504589 0.126759016,7.49604061 0.0757741134,7.61805276 C-0.0252580378,7.86207705 -0.0252580378,8.13809876 0.0757741134,8.38212305 C0.126759016,8.50519006 0.199778772,8.61618478 0.29284087,8.70819201 L3.29227681,11.707628 C3.48730872,11.9035975 3.74340529,12.0006446 3.99938466,12.0006446 C4.25548124,12.0006446 4.51146061,11.9035975 4.70649252,11.707628 C5.09761118,11.3175642 5.09761118,10.6844137 4.70649252,10.2934123 L3.4132341,9.00015383 L12.5867659,9.00015383 L11.2935075,10.2934123 C10.9023888,10.6845309 10.9023888,11.3175642 11.2935075,11.707628 C11.4885394,11.9035975 11.744636,12.0006446 12.0006153,12.0006446 C12.2567119,12.0006446 12.5126913,11.9035975 12.7077232,11.707628 L15.7071591,8.70819201 C15.8002212,8.61618478 15.873241,8.50519006 15.9242259,8.38212305 C16.025258,8.13821597 16.025258,7.86219426 15.9242259,7.61816996 Z" transform="rotate(90 8 8)"/></svg>