<svg xmlns="http://www.w3.org/2000/svg" width="16" height="16" viewBox="0 0 16 16"><path fill="#37474F" d="M9.60175163,3.35427297 C9.18252705,2.93457207 8.50275329,2.93457207 8.08358825,3.35427297 L7.70407717,3.73420083 L2.39050534,9.05336947 L2.39187477,9.0547389 L2.22444692,9.22264308 C2.22444692,9.22264308 1.69048781,9.76041277 0.484911997,13.6523959 C0.476457248,13.6796059 0.468062039,13.7066373 0.459547749,13.7342045 C0.438053633,13.8039264 0.416321354,13.8747796 0.394410455,13.9465855 C0.375000255,14.0100556 0.355351894,14.0748357 0.335643992,14.1400325 C0.319032196,14.1949884 0.302539481,14.2493488 0.285689522,14.3054955 C0.247464528,14.4329122 0.208763211,14.5625913 0.169287867,14.6964979 C0.0826564558,14.9904493 -0.128950441,15.6533136 0.110342783,15.8932617 C0.340764474,16.1243979 1.01059497,15.9210671 1.3037128,15.834138 C1.43660717,15.7947222 1.56539325,15.7560804 1.69185724,15.717915 C1.75026646,15.700291 1.80688947,15.6830243 1.8639888,15.6656384 C1.92537504,15.6469427 1.98646358,15.6283661 2.04630177,15.6099681 C2.12185865,15.5867473 2.1963438,15.5638242 2.26957861,15.5410797 C2.29142996,15.5342921 2.31286454,15.527564 2.33453728,15.520836 C6.03747935,14.3678344 6.70224891,13.8267304 6.75750248,13.7772523 C6.75791926,13.7769546 6.75791926,13.7769546 6.75821697,13.7766569 C6.76053905,13.7745134 6.76214664,13.7730845 6.76214664,13.7730845 L6.93356371,13.6012506 L6.94505502,13.6127419 L12.2587459,8.29357329 L12.2586864,8.29351375 L12.6381975,7.91358589 C13.057422,7.49394453 13.057422,6.81351582 12.6381975,6.39381492 L9.60175163,3.35427297 Z M6.1507849,13.0858681 C6.14614074,13.0890238 6.13982945,13.0931321 6.13316092,13.0973595 C6.12946941,13.0997411 6.12500387,13.1025395 6.12059787,13.1052783 C6.11613234,13.1080767 6.11125002,13.1111133 6.10606999,13.114269 C6.10148538,13.1170674 6.09672214,13.1199253 6.09160166,13.1230214 C5.91482594,13.2288249 5.39604967,13.501818 4.13700649,13.9576004 C3.98988195,14.0108296 3.82965849,14.067274 3.66181385,14.1254451 L1.87202676,12.3338122 C1.93037644,12.1647172 1.98688037,12.003303 2.04028818,11.8550472 C2.49505844,10.5907049 2.76781341,10.0703806 2.87302146,9.89384301 C2.8755817,9.88961563 2.87790378,9.8857455 2.88022586,9.88193491 C2.88391737,9.87586178 2.88737072,9.87020543 2.8905859,9.86502541 C2.89314614,9.86091712 2.89582547,9.8566302 2.898088,9.85311731 C2.90231538,9.84650832 2.90642367,9.84019703 2.90957932,9.83549333 L3.04056839,9.70414701 L6.28463192,12.9516043 L6.1507849,13.0858681 Z M15.6744051,3.35427297 L12.6380188,0.314731023 C12.2187943,-0.104910341 11.5391396,-0.104910341 11.1198555,0.314731023 L7.63311769,3.80185907 C7.21389311,4.22150043 8.5046217,3.65407892 8.92384628,4.07372029 L10.677502,7.38530842 C11.0966671,7.80494978 11.9568222,8.60552684 12.3760467,8.18588548 L15.6744051,4.87404394 C16.0936297,4.45434304 16.0936297,3.77391434 15.6744051,3.35427297 Z"/></svg>