<svg xmlns="http://www.w3.org/2000/svg" width="16" height="16" viewBox="0 0 16 16"><path fill="#37474F" d="M10.3150973,7.73637714 L10.3219983,7.74765324 L10.3219983,7.74765324 L10.3295618,7.75834974 L14.8182659,12.2467712 C14.7362079,12.2895015 14.6469392,12.3200589 14.5518147,12.332667 L14.4547883,12.339078 L1.79144164,12.339078 C1.69257214,12.339078 1.59910063,12.3192652 1.5123818,12.285323 L1.42796402,12.2468814 L5.91666815,7.75817732 L5.92432809,7.74743959 L5.92432809,7.74743959 L5.93124287,7.73620472 L8.1232173,9.48982383 L10.3150973,7.73637714 Z M15.2461406,3.79137437 L15.2461406,11.5476742 C15.2461406,11.646461 15.2262658,11.7399739 15.1922926,11.8267185 L15.1538339,11.9111518 L10.6840682,7.44110351 L15.2461406,3.79137437 Z M1,3.7913461 L5.56207239,7.44107525 L1.09230675,11.9111236 C1.035333,11.8017128 1,11.679373 1,11.5476459 L1,11.5476459 L1,3.7913461 Z M14.4548341,3 C14.676693,3 14.87549,3.09247612 15.0186415,3.23981608 L15.0854292,3.31788392 L8.12316076,8.88172879 L1.16058141,3.31833618 C1.2842671,3.15346232 1.46921172,3.03734972 1.6825842,3.00753946 L1.79148743,3 L14.4548341,3 Z"/></svg>