<svg xmlns="http://www.w3.org/2000/svg" width="16" height="16" viewBox="0 0 16 16"><path fill="#37474F" d="M16,4.22417722 L16,9.3207825 C16,9.65879701 15.8625618,9.96479088 15.6403786,10.1862886 C15.4181716,10.4078101 15.1112015,10.5448162 14.7721812,10.5448162 L5.28255356,10.5448162 L5.60268542,10.757579 C5.88478738,10.9449905 6.06394032,11.2286984 6.12555433,11.5358457 C6.18717259,11.8430142 6.13123461,12.1736237 5.94316676,12.4547789 C5.70671216,12.8085192 5.31727638,13 4.92062313,13 C4.68673366,13 4.45007603,12.9334515 4.24070931,12.7942025 L0.546778317,10.339179 C0.205088135,10.1122919 0,9.73013024 0,9.3207825 C0,8.91144999 0.205216735,8.52944214 0.54675304,8.30240281 L4.24069401,5.8473727 C4.52264432,5.65988392 4.85421321,5.60414539 5.16231724,5.66557057 C5.47043258,5.726998 5.7550771,5.90559838 5.94314589,6.18675494 C6.13129202,6.46791264 6.18723718,6.79849806 6.12562193,7.10565149 C6.06400279,7.41282437 5.88480781,7.69656098 5.6026969,7.88397837 L5.28255356,8.09674884 L13.5443623,8.09674884 L13.5443623,4.22403367 C13.5443623,3.88601916 13.6818006,3.58002529 13.9039837,3.35852756 C14.1261907,3.13700606 14.4331609,3 14.7721812,3 C15.1112109,3 15.4181888,3.1370135 15.6403977,3.35856453 C15.8625683,3.5800774 16,3.88609835 16,4.22417722 Z"/></svg>