<svg xmlns="http://www.w3.org/2000/svg" width="16" height="16" viewBox="0 0 16 16"><path fill="currentColor" d="M14.3413092,0 C14.7808351,0.0014323755 15.201923,0.176669803 15.5126266,0.487373381 C15.8233332,0.798107436 15.9985714,1.21916488 16,1.65869082 L16,1.65869082 L16,14.3413092 C15.9985676,14.7808351 15.8233302,15.201923 15.5126266,15.5126266 C15.2018926,15.8233332 14.7808351,15.9985714 14.3413092,16 L14.3413092,16 L1.65869082,16 C1.21916488,15.9985676 0.79807696,15.8233302 0.487373381,15.5126266 C0.176666756,15.2018926 0.00142856599,14.7808351 0,14.3413092 L0,14.3413092 L0,1.65869082 C0.0014323755,1.21916488 0.176669803,0.79807696 0.487373381,0.487373381 C0.798107436,0.176666756 1.21916488,0.00142856599 1.65869082,0 L1.65869082,0 Z M14.9332764,3.73330875 L1.06663213,3.73330875 L1.06663213,14.341116 C1.06663213,14.4981317 1.1290136,14.6487262 1.2399648,14.7597963 C1.35101962,14.8707475 1.50162323,14.9331289 1.65864511,14.9331289 L1.65864511,14.9331289 L14.3412635,14.9331289 C14.4982792,14.9331289 14.6488737,14.8707475 14.7599438,14.7597963 C14.870895,14.6487415 14.9332764,14.4981378 14.9332764,14.341116 L14.9332764,14.341116 L14.9332764,3.73330875 Z M8.00015238,11.7332886 C8.44193355,11.7332886 8.80014933,12.0915044 8.80014933,12.5332856 C8.80014933,12.9750668 8.44193355,13.3332825 8.00015238,13.3332825 C7.55837121,13.3332825 7.20015543,12.9750668 7.20015543,12.5332856 C7.20015543,12.0915044 7.55837121,11.7332886 8.00015238,11.7332886 Z M7.60013867,5.17381648 C7.84763487,5.03095988 8.15263637,5.03095988 8.40013562,5.17381648 C8.64763487,5.31677975 8.80013409,5.5808275 8.80013409,5.86665956 L8.80013409,5.86665956 L8.80013409,10.13331 C8.80013409,10.3454234 8.71582203,10.5490067 8.56584927,10.6990069 C8.41587651,10.8490071 8.21229329,10.9332917 8.00015238,10.9332917 C7.78800843,10.9332917 7.5844252,10.8489796 7.43442501,10.6990069 C7.28442482,10.5490341 7.20014019,10.3454509 7.20014019,10.13331 L7.20014019,10.13331 L7.20014019,5.86665956 C7.20014019,5.58082445 7.35263942,5.31679194 7.60013867,5.17381648 Z M4.26665956,1.24797574 C4.09891619,1.2436908 3.93653662,1.30761742 3.81689365,1.42535564 C3.69725068,1.54296281 3.63046599,1.70415686 3.63201359,1.87201298 C3.63201359,2.03690683 3.69725068,2.19500147 3.81355957,2.31190464 C3.92985627,2.42881086 4.08759433,2.49500032 4.25247599,2.49596068 C4.41736374,2.4967847 4.57593381,2.43250151 4.69343431,2.31690576 C4.81105367,2.20131001 4.87807665,2.04381576 4.87998141,1.879056 C4.88176731,1.71417435 4.81832831,1.55524467 4.70343351,1.43703102 C4.58853871,1.31881738 4.43153207,1.25084202 4.26665041,1.24798488 Z M2.45332399,1.24798184 L2.44262689,1.24798184 C2.27713875,1.24798184 2.11844679,1.3136974 2.00142476,1.43071943 C1.88439968,1.54771708 1.81868717,1.70653704 1.81868717,1.87201298 C1.81868717,2.03690683 1.88392425,2.19500147 2.00023314,2.31190464 C2.11652984,2.42881086 2.27426791,2.49500032 2.43914957,2.49596068 C2.60403732,2.4967847 2.76260738,2.43250151 2.88010789,2.31690576 C2.99772725,2.20131001 3.06475023,2.04381576 3.06665498,1.879056 C3.06844088,1.71417435 3.00500189,1.55524467 2.89010709,1.43703102 C2.77521228,1.31881738 2.61820564,1.25084202 2.45332399,1.24798184 L2.45332399,1.24798184 Z M6.08534367,1.23738652 C5.92070583,1.238697 5.76344623,1.30512569 5.64749391,1.42202887 C5.53166045,1.53881319 5.46666108,1.69678896 5.46666108,1.861311 C5.46666108,2.02714352 5.5326113,2.18607015 5.65011181,2.30321408 C5.76750565,2.42023916 5.92666999,2.48583358 6.0925025,2.48535996 C6.25820092,2.48488196 6.41701174,2.41833441 6.53379606,2.30059619 C6.65046152,2.18286711 6.71558127,2.02358086 6.7146392,1.85774835 C6.713675,1.69190975 6.64677087,1.53333968 6.52867608,1.41691194 C6.4107032,1.30060305 6.25105428,1.23596104 6.08534063,1.23738957 Z"/></svg>