<svg xmlns="http://www.w3.org/2000/svg" width="16" height="16" viewBox="0 0 16 16"><path fill="#37474F" d="M8,0 C3.582,0 0,3.582 0,8 C0,12.418 3.582,16 8,16 C12.418,16 16,12.418 16,8 C16,3.582 12.418,0 8,0 Z M8,13.1066667 C7.37466667,13.1066667 6.94666667,12.6246667 6.94666667,12 C6.94666667,11.3573333 7.39266667,10.8933333 8,10.8933333 C8.642,10.8933333 9.05333333,11.3573333 9.05333333,12 C9.05333333,12.6253333 8.642,13.1066667 8,13.1066667 Z M8.41466667,8.88066667 C8.25533333,9.424 7.75333333,9.43333333 7.586,8.88066667 C7.39333333,8.24333333 6.70866667,5.824 6.70866667,4.25266667 C6.70866667,2.17933333 9.30266667,2.16933333 9.30266667,4.25266667 C9.302,5.83333333 8.58066667,8.31533333 8.41466667,8.88066667 Z"/></svg>