<svg xmlns="http://www.w3.org/2000/svg" width="16" height="16" viewBox="0 0 16 16"><g fill="none" fill-rule="evenodd"><path fill="#37474F" fill-rule="nonzero" d="M10.82,7.616 L7.82,5.116 C7.671,4.992 7.463,4.965 7.288,5.047 C7.112,5.129 7,5.306 7,5.5 L7,7 L1.5,7 C1.224,7 1,7.224 1,7.5 L1,8.5 C1,8.776 1.224,9 1.5,9 L7,9 L7,10.5 C7,10.694 7.112,10.87 7.288,10.953 C7.355,10.984 7.428,11 7.5,11 C7.615,11 7.729,10.961 7.82,10.884 L10.82,8.384 C10.935,8.289 11,8.148 11,8 C11,7.852 10.935,7.711 10.82,7.616 Z" transform="matrix(-1 0 0 1 12 0)"/><path fill="#37474F" fill-rule="nonzero" d="M15,0 L1,0 C0.448,0 0,0.448 0,1 L0,4 L2,4 L2,2 L14,2 L14,14 L2,14 L2,12 L0,12 L0,15 C0,15.553 0.448,16 1,16 L15,16 C15.553,16 16,15.553 16,15 L16,1 C16,0.448 15.553,0 15,0 Z"/></g></svg>