<svg xmlns="http://www.w3.org/2000/svg" width="16" height="16" viewBox="0 0 16 16"><path fill="#37474F" d="M8.4255879,6.67651111 L11.6295098,10.1020794 L9.44927536,10.1020794 L9.44927536,11.6572149 C9.44927536,13.1906739 9.09809072,14.3029986 8.06275044,15.0219492 C7.12560952,15.6727092 5.61269531,16 3.24637681,16 L3.24637681,16 L3.24637681,15.7681159 C4.5385994,15.7681159 5.44470882,15.3439178 6.05822459,14.7273049 C6.8807269,13.9006506 7.17786809,12.7346534 7.18813066,11.8052337 L7.18813066,11.8052337 L7.18838826,10.1020794 L4.77974569,10.1020794 L8.4255879,6.67651111 Z M16,-5.32907052e-14 L16,12.8695652 L9.85507246,12.8695652 L9.85507246,11.6655518 L14.7826087,11.6655518 L14.7826087,3.14827202 L1.2173913,3.14827202 L1.2173913,11.6655518 L6.14492754,11.6655518 L6.14492754,12.8695652 L0,12.8695652 L0,-5.32907052e-14 L16,-5.32907052e-14 Z M1.97101449,1.27536232 L1.15942029,1.27536232 L1.15942029,1.97101449 L1.97101449,1.97101449 L1.97101449,1.27536232 Z M12.8695652,1.27536232 L3.24637681,1.27536232 L3.24637681,1.97101449 L12.8695652,1.97101449 L12.8695652,1.27536232 Z"/></svg>