<svg xmlns="http://www.w3.org/2000/svg" width="16" height="16" viewBox="0 0 16 16"><path fill="#37474F" d="M1.65415462,1.9 L14.542164,14.9642213 L13.6151039,15.9 L11.4955788,13.7484308 L11.1865474,13.4352611 C10.2013075,13.8368519 9.1252021,14.0579047 7.99817655,14.0579047 C4.36263556,14.0579047 1.25790461,11.7663124 3.55271368e-15,8.5315844 C0.567142623,7.06897465 1.51601586,5.80527788 2.71574064,4.85475079 L2.71574064,4.85475079 L2.38489608,4.51947584 L0.727094566,2.83947446 L1.65415462,1.9 Z M4.74801306,6.91054195 C4.50806811,7.40421505 4.36263556,7.94949017 4.36263556,8.5315844 C4.36263556,10.5652703 5.9913642,12.2158095 7.99817655,12.2158095 C8.57261296,12.2158095 9.11064862,12.0684294 9.59418542,11.8252713 L9.59418542,11.8252713 L8.47080677,10.6868493 C8.31811452,10.7200073 8.16177539,10.7421125 7.99817655,10.7421125 C6.79480488,10.7421125 5.81685877,9.7510706 5.81685877,8.5315844 C5.81685877,8.36579479 5.83867195,8.20739663 5.87139172,8.04896394 L5.87139172,8.04896394 Z M7.99821064,3.00529861 C11.6373644,3.00529861 14.7384826,5.29689095 16,8.53161894 C15.4655771,9.90214638 14.6003097,11.1031885 13.5023911,12.0316103 L13.5023911,12.0316103 L11.3756063,9.87634538 C11.5392051,9.46004076 11.6337175,9.00688249 11.6337175,8.53161894 C11.6337175,6.49793306 10.0049889,4.84739387 7.99817655,4.84739387 C7.52919323,4.84739387 7.08202309,4.94686764 6.67125368,5.10896152 L6.67125368,5.10896152 L5.10070488,3.52107699 C6.00595176,3.18949777 6.98025098,3.00529861 7.99821064,3.00529861 Z M7.99817655,6.32105627 C9.20154822,6.32105627 10.1794943,7.3120982 10.1794943,8.5315844 L10.1794943,8.5315844 L10.1685877,8.65316345 L7.87820408,6.33210891 Z"/></svg>