<svg xmlns="http://www.w3.org/2000/svg" width="16" height="16" viewBox="0 0 16 16"><path fill="#37474F" d="M8,5 C4.36363636,5 1.23636364,7.25454545 0,10.4545455 C1.23636364,13.6545455 4.36363636,15.9090909 8,15.9090909 C11.6363636,15.9090909 14.7636364,13.6545455 16,10.4545455 C14.7636364,7.25454545 11.6363636,5 8,5 Z M8,14.0909091 C5.96363636,14.0909091 4.36363636,12.4909091 4.36363636,10.4545455 C4.36363636,8.41818182 5.96363636,6.81818182 8,6.81818182 C10.0363636,6.81818182 11.6363636,8.41818182 11.6363636,10.4545455 C11.6363636,12.4909091 10.0363636,14.0909091 8,14.0909091 Z M8,8.27272727 C6.76363636,8.27272727 5.81818182,9.21818182 5.81818182,10.4545455 C5.81818182,11.6909091 6.76363636,12.6363636 8,12.6363636 C9.23636364,12.6363636 10.1818182,11.6909091 10.1818182,10.4545455 C10.1818182,9.21818182 9.23636364,8.27272727 8,8.27272727 Z M8,0 C8.55228475,-1.01453063e-16 9,0.44771525 9,1 L9,3 C9,3.55228475 8.55228475,4 8,4 C7.44771525,4 7,3.55228475 7,3 L7,1 C7,0.44771525 7.44771525,1.01453063e-16 8,0 Z M15,1.26794919 C15.4782926,1.54409157 15.6421678,2.15568197 15.3660254,2.6339746 L14.3660254,4.3660254 C14.089883,4.84431803 13.4782926,5.00819318 13,4.73205081 C12.5217074,4.45590843 12.3578322,3.84431803 12.6339746,3.3660254 L13.6339746,1.6339746 C13.910117,1.15568197 14.5217074,0.991806818 15,1.26794919 Z M1,1.26794919 C1.47829262,0.991806818 2.08988303,1.15568197 2.3660254,1.6339746 L3.3660254,3.3660254 C3.64216778,3.84431803 3.47829262,4.45590843 3,4.73205081 C2.52170738,5.00819318 1.91011697,4.84431803 1.6339746,4.3660254 L0.633974596,2.6339746 C0.357832221,2.15568197 0.521707377,1.54409157 1,1.26794919 Z"/></svg>