<svg xmlns="http://www.w3.org/2000/svg" width="16" height="16" viewBox="0 0 16 16"><path fill="#37474F" d="M8,3 C4.36363636,3 1.23636364,5.27333333 0,8.5 C1.23636364,11.7266667 4.36363636,14 8,14 C11.6363636,14 14.7636364,11.7266667 16,8.5 C14.7636364,5.27333333 11.6363636,3 8,3 Z M8,12.1666667 C5.96363636,12.1666667 4.36363636,10.5533333 4.36363636,8.5 C4.36363636,6.44666667 5.96363636,4.83333333 8,4.83333333 C10.0363636,4.83333333 11.6363636,6.44666667 11.6363636,8.5 C11.6363636,10.5533333 10.0363636,12.1666667 8,12.1666667 Z M8,6.3 C6.76363636,6.3 5.81818182,7.25333333 5.81818182,8.5 C5.81818182,9.74666667 6.76363636,10.7 8,10.7 C9.23636364,10.7 10.1818182,9.74666667 10.1818182,8.5 C10.1818182,7.25333333 9.23636364,6.3 8,6.3 Z"/></svg>