<svg xmlns="http://www.w3.org/2000/svg" width="16" height="16" viewBox="0 0 16 16"><path fill="#37474F" d="M14.6666562,5.33334375 C15.4020312,5.33334375 16,5.9313125 16,6.66665625 C16,6.78125 15.98275,6.89746875 15.9479687,7.02084375 C15.9450312,7.040375 15.9407812,7.05990625 15.9342812,7.07878125 L15.9342812,7.07878125 L13.9538125,13.0110625 C13.9515312,13.0185625 13.9489375,13.0257187 13.946,13.032875 C13.7829062,13.6048125 13.2636875,14 12.6666875,14 L12.6666875,14 L1.33334375,14 C0.78646875,14 0.3014375,13.6709062 0.097,13.1617812 C0.069,13.092125 0.0654375,13.0149687 0.08659375,12.9430312 L0.08659375,12.9430312 L2.03809375,6.35384375 C2.03875,6.3515625 2.03971875,6.34896875 2.040375,6.3466875 C2.1875,5.74871875 2.7151875,5.33334375 3.33334375,5.33334375 L3.33334375,5.33334375 Z M4.99996875,2 C5.08853125,2 5.17315625,2.03515625 5.23565625,2.09765625 L5.23565625,2.09765625 L6.47134375,3.33334375 L12.6666562,3.33334375 C13.2272187,3.33334375 13.7307812,3.6904375 13.9195937,4.2216875 C13.95575,4.32390625 13.940125,4.4371875 13.8779375,4.52540625 C13.8154375,4.6139375 13.713875,4.6666875 13.6054687,4.6666875 L13.6054687,4.6666875 L3.33334375,4.6666875 C2.42190625,4.6666875 1.62665625,5.28225 1.39878125,6.16375 C1.3978125,6.16765625 1.3968125,6.17125 1.39584375,6.17515625 L1.39584375,6.17515625 L0.653,8.683625 C0.6106875,8.82684375 0.47915625,8.92221875 0.33365625,8.92221875 C0.3176875,8.92221875 0.30175,8.92121875 0.28546875,8.918625 C0.12175,8.89484375 -4.4408921e-14,8.7545625 -4.4408921e-14,8.588875 L-4.4408921e-14,8.588875 L-4.4408921e-14,3.33334375 C-4.4408921e-14,2.59796875 0.59796875,2 1.33334375,2 L1.33334375,2 Z"/></svg>