<svg xmlns="http://www.w3.org/2000/svg" width="16" height="16" viewBox="0 0 16 16"><path fill="#37474F" d="M2.34985741,2.34985741 C3.799894,0.899820814 5.8,0 8,0 C10.2,0 12.200106,0.899820814 13.6501426,2.34985741 C15.1001792,3.799894 16,5.8 16,8 C16,10.2 15.1001792,12.200106 13.6501426,13.6501426 C12.200106,15.1001792 10.2,16 8,16 C5.8,16 3.799894,15.1001792 2.34985741,13.6501426 C0.899820814,12.200106 0,10.2 0,8 C0,5.8 0.899820814,3.799894 2.34985741,2.34985741 Z M4.45921392,12.9399294 C5.49388826,13.7029675 6.72924109,14.1176471 8.03378082,14.1176471 C9.70684403,14.1176471 11.2277036,13.4330313 12.3303675,12.3303675 C13.4330313,11.2277036 14.1176471,9.70684403 14.1176471,8.03378082 C14.1176471,6.72924109 13.7029675,5.49388826 12.9399294,4.45921392 L4.45921392,12.9399294 Z M11.5407861,3.06007062 C10.5061117,2.29703247 9.27075891,1.88235294 7.96621918,1.88235294 C6.29315597,1.88235294 4.77229637,2.56696872 3.66963254,3.66963254 C2.56696872,4.77229637 1.88235294,6.29315597 1.88235294,7.96621918 C1.88235294,9.27075891 2.29703247,10.5061117 3.06007062,11.5407861 L11.5407861,3.06007062 Z"/></svg>