<svg xmlns="http://www.w3.org/2000/svg" width="16" height="16" viewBox="0 0 16 16"><path fill="#37474F" d="M14.0547718,4.81327801 L14.0547718,12.2721992 L7.59834025,16 L7.59834025,8.54107884 L8.3153527,8.12614108 L14.0547718,4.81327801 Z M6.1284311e-14,4.85311203 L2.44979253,6.26390041 L2.44979253,8.1626556 L3.63817427,8.77344398 L3.63817427,6.95767635 L6.40995851,8.55435685 L6.40995851,15.960166 L6.1284311e-14,12.2589212 L6.1284311e-14,4.85311203 Z M10.7717842,2.20082988 L13.633195,3.83070539 L9.47053942,6.2373444 L7.00082988,7.66141079 L4.51784232,6.22738589 L4.13941909,6.03153527 L10.7717842,2.20082988 Z M7.00082988,2.84217094e-14 L9.48381743,1.4373444 L2.85145228,5.26804979 L0.365145228,3.83070539 L7.00082988,2.84217094e-14 Z"/></svg>