<svg xmlns="http://www.w3.org/2000/svg" width="16" height="16" viewBox="0 0 16 16"><path fill="#37474F" d="M5.06085301,13 L2.48689958e-13,8 L5.06085301,3 L9.698,7.582 L13.6915529,7.58235556 L11.6280812,5.7485296 C11.5012236,5.63590389 11.4313335,5.48161769 11.4213399,5.32340942 C11.4113591,5.16540537 11.4610479,5.00349838 11.5731729,4.87512054 C11.6844483,4.74732354 11.8371641,4.67682858 11.9938171,4.66673897 C12.1543495,4.65639948 12.3189759,4.70948076 12.4475764,4.82873634 L12.4475764,4.82873634 L16,8.41671247 L12.437351,11.58246 C12.3102797,11.6952756 12.1498891,11.7454552 11.9933318,11.7352524 C11.8367987,11.7250513 11.6841489,11.6545299 11.5725446,11.5260462 C11.4610479,11.3983897 11.4113591,11.2364828 11.4213399,11.0784787 C11.4313335,10.9202704 11.5012236,10.7659842 11.6282126,10.6532417 L11.6282126,10.6532417 L13.6914776,8.81979773 L9.292,8.819 L5.06085301,13 Z"/></svg>