<svg xmlns="http://www.w3.org/2000/svg" width="16" height="16" viewBox="0 0 16 16"><path fill="#37474F" d="M4.84134836,13 L-1.45394807e-12,8 L4.84134836,3 L9.296,7.6 L13.6542674,7.60058935 L11.5574669,5.65265603 C11.4285604,5.53302234 11.3575415,5.36913588 11.3473864,5.20108332 C11.3372444,5.03324767 11.3877358,4.86126624 11.5016718,4.72490026 C11.6147445,4.58915127 11.7699269,4.51426985 11.9291101,4.50355242 C12.0922354,4.49256958 12.2595208,4.54895377 12.3901984,4.67562986 L12.3901984,4.67562986 L16,8.486863 L12.3798079,11.8495949 C12.2506842,11.9694304 12.087703,12.0227322 11.928617,12.0118947 C11.7695556,12.0010588 11.6144402,11.9261493 11.5010333,11.7896708 C11.3877358,11.6540711 11.3372444,11.4820897 11.3473864,11.3142541 C11.3575415,11.1462015 11.4285604,10.982315 11.5576005,10.8625573 L11.5576005,10.8625573 L13.6541909,8.9150297 L8.795,8.915 L4.84134836,13 Z M4.80626944,4.47967794 L1.43272727,7.96377154 L4.80626944,11.4478651 L8.17981161,7.96377154 L4.80626944,4.47967794 Z"/></svg>