<svg xmlns="http://www.w3.org/2000/svg" width="16" height="16" viewBox="0 0 16 16"><path fill="currentColor" d="M8.95775593,2.90908058 C5.98815079,4.18187672 4.92747471,5.03028122 4.92747471,5.03028122 C1.53347792,7.78787994 3.65467857,12.2423634 3.65467857,12.2423634 C3.86685924,9.27275826 8.10919992,7.15148186 8.10919992,7.15148186 C9.16980024,6.51508379 10.4425964,5.03028122 10.4425964,5.03028122 C9.80619831,6.72727961 8.74559799,7.36367769 8.74559799,7.36367769 C4.07895657,10.9696809 3.65471645,15 3.65471645,15 L4.71531677,14.5757978 C4.71531677,13.5151974 5.35171484,12.8787994 5.35171484,12.8787994 C9.59411612,13.09098 11.7153168,9.48480257 11.7153168,9.48480257 C13.6243216,5.87879936 11.7153168,1 11.7153168,1 C11.7153168,2.06075184 8.95771805,2.90915634 8.95771805,2.90915634 L8.95775593,2.90908058 Z"/></svg>