<svg xmlns="http://www.w3.org/2000/svg" width="16" height="16" viewBox="0 0 16 16"><path fill="#37474F" d="M8,0 C3.58139429,0 0,3.58139429 0,8 C0,12.41856 3.58139429,16 8,16 C12.41856,16 16,12.41856 16,8 C16,3.58139429 12.41856,0 8,0 Z M11.8280229,8.64228571 L7.05609143,11.92512 C6.92333714,12.0160457 6.76882286,12.0625371 6.61389714,12.0625371 C6.48918857,12.0625371 6.36539429,12.0329143 6.25138286,11.9733486 C5.99515429,11.8378057 5.83424,11.5721143 5.83424,11.2829257 L5.83424,4.71716571 C5.83424,4.42797714 5.99515429,4.16224 6.25138286,4.02669714 C6.50761143,3.89229714 6.81718857,3.91081143 7.05609143,4.07492571 L11.8280229,7.35771429 C12.0391771,7.50308571 12.1657143,7.74358857 12.1657143,8 C12.1657143,8.25641143 12.0392229,8.49691429 11.8280229,8.64228571 Z"/></svg>