<svg xmlns="http://www.w3.org/2000/svg" width="16" height="16" viewBox="0 0 16 16"><path fill="#37474F" d="M15.2019026,13.7886689 L4.50276928,13.7886689 C4.06180659,13.7886689 3.70440593,13.4325614 3.70440593,12.9931943 C3.70440593,12.5538271 4.06180659,12.1977196 4.50276928,12.1977196 L15.2016365,12.1977196 C15.6425992,12.1977196 15.9999999,12.5538271 15.9999999,12.9931943 C15.9999999,13.4325614 15.6428653,13.7886689 15.2019026,13.7886689 Z M15.2019026,8.79547463 L4.50276928,8.79547463 C4.06180659,8.79547463 3.70440593,8.43936716 3.70440593,8 C3.70440593,7.56063284 4.06180659,7.20452537 4.50276928,7.20452537 L15.2016365,7.20452537 C15.6425992,7.20452537 16,7.56063284 16,8 C16.000266,8.43936716 15.6428653,8.79547463 15.2019026,8.79547463 Z M15.2019026,3.80228036 L4.50276928,3.80228036 C4.06180659,3.80228036 3.70440593,3.44617288 3.70440593,3.00680573 C3.70440593,2.56743857 4.06180659,2.21133109 4.50276928,2.21133109 L15.2016365,2.21133109 C15.6425992,2.21133109 15.9999999,2.56743857 15.9999999,3.00680573 C15.9999999,3.44617288 15.6428653,3.80228036 15.2019026,3.80228036 Z M1.07220198,4.13664486 C1.66436278,4.13664486 2.14440395,3.65834062 2.14440395,3.06832243 C2.14440395,2.47830425 1.66436278,2 1.07220198,2 C0.480041176,2 1.70752301e-13,2.47830425 1.70752301e-13,3.06832243 C1.70752301e-13,3.65834062 0.480041176,4.13664486 1.07220198,4.13664486 Z M1.07220198,9.06832243 C1.66436278,9.06832243 2.14440395,8.59001819 2.14440395,8 C2.14440395,7.40998181 1.66436278,6.93167757 1.07220198,6.93167757 C0.480041176,6.93167757 1.70752301e-13,7.40998181 1.70752301e-13,8 C1.70752301e-13,8.59001819 0.480041176,9.06832243 1.07220198,9.06832243 Z M1.07220198,14 C1.66436278,14 2.14440395,13.5216958 2.14440395,12.9316776 C2.14440395,12.3416594 1.66436278,11.8633551 1.07220198,11.8633551 C0.480041176,11.8633551 1.70752301e-13,12.3416594 1.70752301e-13,12.9316776 C1.70752301e-13,13.5216958 0.480041176,14 1.07220198,14 Z"/></svg>