<svg xmlns="http://www.w3.org/2000/svg" width="16" height="16" viewBox="0 0 16 16"><path fill="#37474F" d="M12.333677,10.7590332 C13.7891192,10.7590332 14.9731954,11.9345703 14.9731954,13.3795166 C14.9731954,14.8244629 13.7889963,16 12.333677,16 C10.8782347,16 9.6941586,14.8244629 9.6941586,13.3795166 C9.6941586,11.9345703 10.8782347,10.7590332 12.333677,10.7590332 Z M7.81930993,9.64770506 L9.70067531,10.9630127 C9.53975531,11.1357727 9.39584949,11.3242569 9.27155147,11.5258904 L9.15388546,11.7318115 L7.27252004,10.4165039 C7.48708004,10.1861572 7.67139262,9.92785644 7.81930993,9.64770506 Z M4.63951839,5.37951659 C6.09496065,5.37951659 7.27903679,6.55505372 7.27903679,8 C7.27903679,9.44494628 6.09496065,10.6204834 4.63951839,10.6204834 C3.18407614,10.6204834 2,9.44494628 2,8 C2,6.55505372 3.18407614,5.37951659 4.63951839,5.37951659 Z M9.15388546,4.26818847 C9.26482341,4.478302 9.39623373,4.67612457 9.54552276,4.85908127 L9.70067531,5.03698731 L7.81930993,6.35229494 C7.70837195,6.14218141 7.57696163,5.94435883 7.42767259,5.76140213 L7.27252004,5.58349609 L9.15388546,4.26818847 Z M12.333677,-5.41788836e-14 C13.7891192,-5.41788836e-14 14.9731954,1.17553712 14.9731954,2.62048341 C14.9731954,4.06542969 13.7891192,5.24096681 12.333677,5.24096681 C10.8782347,5.24096681 9.6941586,4.06542969 9.6941586,2.62048341 C9.6941586,1.17553712 10.8782347,-5.41788836e-14 12.333677,-5.41788836e-14 Z"/></svg>