<svg xmlns="http://www.w3.org/2000/svg" width="16" height="16" viewBox="0 0 16 16"><path fill="#37474F" d="M8,4 C9.1045695,4 10,3.1045695 10,2 C10,0.8954305 9.1045695,0 8,0 C6.8954305,0 6,0.8954305 6,2 C6,3.1045695 6.8954305,4 8,4 Z M8,10 C9.1045695,10 10,9.1045695 10,8 C10,6.8954305 9.1045695,6 8,6 C6.8954305,6 6,6.8954305 6,8 C6,9.1045695 6.8954305,10 8,10 Z M8,16 C9.1045695,16 10,15.1045695 10,14 C10,12.8954305 9.1045695,12 8,12 C6.8954305,12 6,12.8954305 6,14 C6,15.1045695 6.8954305,16 8,16 Z"/></svg>