<svg xmlns="http://www.w3.org/2000/svg" width="16" height="16" viewBox="0 0 16 16"><path fill="currentColor" d="M0.551757901,8.94455298 L1.64230245,9.21478915 L2.46341082,7.92584741 L0.903112924,7.53897289 C0.512558456,7.44185427 0.118484039,7.67865091 0.0216854105,8.06680541 C-0.075273216,8.45511991 0.162003423,8.84791435 0.551757901,8.94455298 Z M14.7846763,9.15303003 L11.2148068,12.3667445 L7.01678631,9.11831052 C6.93678745,9.0563914 6.84462875,9.01191203 6.74623015,8.98759237 L6.18735806,8.84903433 L5.3662497,10.1381361 L6.24575724,10.356053 L10.8037727,13.883043 C10.9356108,13.9849616 11.0930486,14.0353609 11.2498463,14.0353609 C11.4252039,14.0353609 11.5999214,13.9724818 11.7378394,13.8484835 L15.7601824,10.2274148 C16.0580982,9.9592586 16.0812979,9.50134509 15.8120217,9.2045493 C15.5427455,8.9080735 15.082912,8.88455383 14.7846763,9.15303003 Z M6.9470273,5.62396002 L10.8568919,8.12696456 C11.1868072,8.33784157 11.625361,8.25064281 11.8483979,7.92968736 L15.8709009,2.13616943 C16.0993776,1.80721409 16.0164988,1.35618048 15.6862635,1.12866371 C15.3555482,0.90098693 14.9029146,0.983545761 14.6744378,1.3125011 L11.0517692,6.52970719 L7.11806488,4.01166286 C6.95518719,3.90750434 6.75742999,3.87262483 6.56799267,3.91374425 C6.37887535,3.95534366 6.21439768,4.07022203 6.11071915,4.23293973 L0.113524109,13.6473664 C-0.10183284,13.9851216 -0.00119426541,14.4326352 0.337840932,14.6468722 C0.45863922,14.7230311 0.593517309,14.7596706 0.726795421,14.7596706 C0.96759201,14.7596706 1.20310867,14.6407923 1.34150671,14.4231954 L6.9470273,5.62396002 Z"/></svg>