<svg xmlns="http://www.w3.org/2000/svg" width="16" height="16" viewBox="0 0 16 16"><path fill="#37474F" d="M7.99891176,0 C9.75041176,0 11.1753824,1.48275 11.1753824,3.3053125 L11.1753824,3.3053125 L11.1753824,5.875 L12.2352941,5.875 C13.2083529,5.875 14,6.716125 14,7.75 L14,7.75 L14,14.125 C14,15.158875 13.2083529,16 12.2352941,16 L12.2352941,16 L3.76470588,16 C2.79164706,16 2,15.158875 2,14.125 L2,14.125 L2,7.75 C2,6.716125 2.79164706,5.875 3.76470588,5.875 L3.76470588,5.875 L4.82244118,5.875 L4.82244118,3.3053125 C4.82244118,1.48275 6.24741176,0 7.99891176,0 Z M12.2352941,7.125 L3.76470588,7.125 C3.44035294,7.125 3.17647059,7.405375 3.17647059,7.75 L3.17647059,7.75 L3.17647059,14.125 C3.17647059,14.469625 3.44035294,14.75 3.76470588,14.75 L3.76470588,14.75 L12.2352941,14.75 C12.5596471,14.75 12.8235294,14.469625 12.8235294,14.125 L12.8235294,14.125 L12.8235294,7.75 C12.8235294,7.405375 12.5596471,7.125 12.2352941,7.125 L12.2352941,7.125 Z M8,8.9375 C8.60102941,8.9375 9.08823529,9.45515625 9.08823529,10.09375 C9.08823529,10.5025 8.88844118,10.8614062 8.58714706,11.0670312 L8.58714706,11.0670312 L8.58714706,12.4375 C8.58714706,12.7826563 8.32376471,13.0625 7.99891176,13.0625 C7.67402941,13.0625 7.41067647,12.7826563 7.41067647,12.4375 L7.41067647,12.4375 L7.41067647,11.0655625 C7.11058824,10.8596875 6.91176471,10.5015 6.91176471,10.09375 C6.91176471,9.45515625 7.39897059,8.9375 8,8.9375 Z M7.99891176,1.25 C6.89611765,1.25 5.99891176,2.172 5.99891176,3.3053125 L5.99891176,3.3053125 L5.99891176,5.875 L9.99891176,5.875 L9.99891176,3.3053125 C9.99891176,2.172 9.10170588,1.25 7.99891176,1.25 Z"/></svg>