<svg xmlns="http://www.w3.org/2000/svg" width="24" height="24" viewBox="0 0 24 24"><g fill="none"><path fill="#FFF" d="M2.39578054,19.2064579 C3.71857073,19.2064579 4.79156108,20.2789531 4.79156108,21.6022385 C4.79156108,22.9250287 3.71866978,23.998019 2.39578054,23.998019 C1.07259416,23.998019 0,22.9251277 0,21.6022385 C0,20.2790521 1.07249511,19.2064579 2.39578054,19.2064579 Z M12.0044572,19.2064579 C13.3277426,19.2064579 14.4002377,20.2789531 14.4002377,21.6022385 C14.4002377,22.9250287 13.3277426,23.998019 12.0044572,23.998019 C10.6811717,23.998019 9.60867663,22.9251277 9.60867663,21.6022385 C9.60867663,20.2790521 10.6811717,19.2064579 12.0044572,19.2064579 Z M21.6042195,19.2064579 C22.9274058,19.2064579 24,20.2789531 24,21.6022385 C24,22.9250287 22.9275049,23.998019 21.6042195,23.998019 C20.2814293,23.998019 19.2084389,22.9251277 19.2084389,21.6022385 C19.2084389,20.2790521 20.2813302,19.2064579 21.6042195,19.2064579 Z M2.39578054,9.59976228 C3.71857073,9.59976228 4.79156108,10.6722574 4.79156108,11.9955428 C4.79156108,13.3187292 3.71866978,14.3913234 2.39578054,14.3913234 C1.07259416,14.3913234 0,13.3188283 0,11.9955428 C0,10.6722574 1.07249511,9.59976228 2.39578054,9.59976228 Z M12.0044572,9.59976228 C13.3277426,9.59976228 14.4002377,10.6722574 14.4002377,11.9955428 C14.4002377,13.3187292 13.3277426,14.3913234 12.0044572,14.3913234 C10.6811717,14.3913234 9.60867663,13.3188283 9.60867663,11.9955428 C9.60867663,10.6722574 10.6811717,9.59976228 12.0044572,9.59976228 Z M21.6042195,9.59976228 C22.9274058,9.59976228 24,10.6722574 24,11.9955428 C24,13.3187292 22.9275049,14.3913234 21.6042195,14.3913234 C20.2814293,14.3913234 19.2084389,13.3188283 19.2084389,11.9955428 C19.2084389,10.6722574 20.2813302,9.59976228 21.6042195,9.59976228 Z M12.0044572,0.00594289865 C13.3277426,0.00594289865 14.4002377,1.07843801 14.4002377,2.40172344 C14.4002377,3.72490982 13.3277426,4.79750398 12.0044572,4.79750398 C10.6811717,4.79750398 9.60867663,3.72500887 9.60867663,2.40172344 C9.60867663,1.07843801 10.6811717,0.00594289865 12.0044572,0.00594289865 Z M2.39578054,0 C3.71857073,0 4.79156108,1.0728913 4.79156108,2.39578054 C4.79156108,3.71896693 3.71866978,4.79185823 2.39578054,4.79185823 C1.07259416,4.79185823 0,3.71896693 0,2.39578054 C0,1.07299035 1.07249511,0 2.39578054,0 Z"/><path fill="#FBC02D" d="M24,2.40172344 C24,3.72490982 22.9275049,4.79750398 21.6042195,4.79750398 C20.2814293,4.79750398 19.2084389,3.72500887 19.2084389,2.40172344 C19.2084389,1.07843801 20.2813302,0.00594289865 21.6042195,0.00594289865 C22.9274058,0.00594289865 24,1.07843801 24,2.40172344"/></g></svg>