<svg xmlns="http://www.w3.org/2000/svg" width="16" height="16" viewBox="0 0 16 16"><path fill="#37474F" d="M15.2727273,1 C15.6743758,1 16,1.34823575 16,1.7777749 L16,1.7777749 L16,14.2222251 C16,14.6517643 15.6743758,15 15.2727273,15 L15.2727273,15 L6.06060606,15 C5.65895758,15 5.33333333,14.6517643 5.33333333,14.2222251 L5.33333333,14.2222251 L5.33333333,11.1110737 C5.33333333,10.6815345 5.65895758,10.3332988 6.06060606,10.3332988 C6.46225455,10.3332988 6.78787879,10.6815345 6.78787879,11.1110737 L6.78787879,11.1110737 L6.78787879,13.4444502 L14.5454545,13.4444502 L14.5454545,2.55554979 L6.78787879,2.55554979 L6.78787879,4.88887449 C6.78787879,5.31841364 6.46225455,5.66664938 6.06060606,5.66664938 C5.65895758,5.66664938 5.33333333,5.31841364 5.33333333,4.88887449 L5.33333333,4.88887449 L5.33333333,1.7777749 C5.33333333,1.34823575 5.65895758,1 6.06060606,1 L6.06060606,1 Z M2.4879748,4.92700415 C2.78304812,4.60327932 3.26147188,4.60327932 3.55649483,4.92700415 C3.85156814,5.25072899 3.85156814,5.77555226 3.55649483,6.0992771 L3.55649483,6.0992771 L2.57959965,7.17102845 L11.3333239,7.17102845 C11.7505973,7.17102845 12.0888889,7.54216809 12.0888889,7.99995855 C12.0888889,8.45774902 11.7505973,8.82888865 11.3333239,8.82888865 L11.3333239,8.82888865 L2.57959965,8.82888865 L3.55649483,9.90075053 C3.85151777,10.2244754 3.85151777,10.7492986 3.55644446,11.0730235 C3.40895817,11.2348306 3.21553353,11.3157895 3.02220963,11.3157895 C2.82883536,11.3157895 2.63551146,11.2348306 2.48792443,11.0729682 L2.48792443,11.0729682 L0.221229432,8.58612266 C0.220423496,8.58523847 0.219768673,8.58424375 0.218962737,8.58335956 C0.202289936,8.56484678 0.186322329,8.54556034 0.1712614,8.52544497 C0.163957605,8.51571886 0.157610859,8.50538487 0.150760403,8.49538244 C0.142852156,8.48372216 0.134641683,8.47239345 0.127287517,8.46029107 L0.116967758,8.44220658 L0.116967758,8.44220658 L0.107139117,8.42387341 C0.101144968,8.41287627 0.094848593,8.40210018 0.089307783,8.39077146 C0.083263263,8.37833751 0.078125421,8.36557199 0.072685353,8.35291699 C0.067547511,8.34103566 0.062157814,8.32937537 0.057574053,8.31721773 L0.057574053,8.31721773 L0.045132416,8.27991588 C0.040901252,8.26687405 0.036317491,8.253998 0.032640408,8.24067985 C0.02921518,8.2282459 0.02669663,8.2155909 0.023825483,8.20304643 C0.02065211,8.18939671 0.017176511,8.17591278 0.014657961,8.16198676 C0.012038669,8.14750811 0.010477168,8.13291894 0.00856307,8.11832977 C0.007001569,8.10611687 0.004885987,8.09412501 0.003777825,8.08180159 C0.001360017,8.05499951 0,8.02814218 0,8.00122958 L0.0009822345,7.95849823 L0.0009822345,7.95849823 L0.003777825,7.91828131 C0.004885987,7.90579209 0.00705194,7.89363445 0.008663812,7.88131103 C0.010527539,7.86688764 0.01208904,7.852409 0.014657961,7.83809614 C0.017176511,7.82405959 0.020702481,7.81035461 0.023875854,7.79659437 C0.02669663,7.78416042 0.029164809,7.77172647 0.032539666,7.7594583 C0.03626712,7.74591911 0.040901252,7.73282201 0.045283529,7.71955913 C0.049262838,7.70729097 0.052990292,7.69496754 0.057523682,7.68286516 C0.062208185,7.67048647 0.067698624,7.65854988 0.072937208,7.6464475 C0.078276534,7.63406881 0.083263263,7.62157959 0.089207041,7.60942195 L0.089207041,7.60942195 L0.107592456,7.57521477 L0.107592456,7.57521477 L0.127186775,7.53984709 L0.127186775,7.53984709 L0.161313128,7.48884025 L0.161313128,7.48884025 L0.171160658,7.47469318 C0.186977152,7.45347257 0.203700324,7.43313615 0.221380545,7.41373919 L0.221380545,7.41373919 Z"/></svg>