<svg xmlns="http://www.w3.org/2000/svg" width="16" height="16" viewBox="0 0 16 16"><path fill="#37474F" d="M6.37798693,8.89351634 L3.98899346,11.2825098 L4,10 C4,9.724 3.776,9.5 3.5,9.5 C3.224,9.5 3,9.724 3,10 L3,12.5 C3,12.648 3.06099346,12.7674771 3.15798693,12.8500131 C3.24847059,12.9425098 3.37448366,13 3.51398693,13 L6,13 C6.276,13 6.5,12.776 6.5,12.5 C6.5,12.224 6.276,12 6,12 L4.6854902,12 L7.08499346,9.60049673 L6.37798693,8.89351634 Z M6,4 C6.276,4 6.5,3.776 6.5,3.5 C6.5,3.224 6.276,3 6,3 L3.51401307,3 C3.3745098,3 3.24849673,3.05801307 3.15801307,3.14998693 C3.06101961,3.23249673 3.00002614,3.352 3.00002614,3.5 L3.00002614,6 C3.00002614,6.276 3.22402614,6.5 3.50002614,6.5 C3.77602614,6.5 4,6.276 4,6 L3.98899346,4.71699346 L6.37798693,7.10598693 L7.08499346,6.39898039 L4.68598693,4 L6,4 Z M12.5,9.5 C12.224,9.5 12,9.724 12,10 L12.0110065,11.2830065 L9.62198693,8.89398693 L8.91500654,9.60099346 L11.3144837,12 L10,12 C9.724,12 9.5,12.224 9.5,12.5 C9.5,12.776 9.724,13 10,13 L12.4860131,13 C12.6259869,13 12.7515033,12.9419869 12.8419869,12.8494902 C12.9390065,12.7674771 13,12.648 13,12.5 L13,10 C13,9.724 12.776,9.5 12.5,9.5 Z M12.4860131,3 L10,3 C9.724,3 9.5,3.224 9.5,3.5 C9.5,3.776 9.724,4 10,4 L11.3140131,4 L8.9145098,6.39950327 L9.62151634,7.1065098 L12.0105098,4.71751634 L12,6 C12,6.276 12.224,6.5 12.5,6.5 C12.776,6.5 13,6.276 13,6 L13,3.5 C13,3.352 12.9384837,3.23249673 12.8419869,3.14998693 C12.7515033,3.05801307 12.6255163,3 12.4860131,3 Z M14,0 L2,0 C0.895503268,0 0,0.895503268 0,2 L0,14 C0,15.1044967 0.895503268,16 2,16 L14,16 C15.1044967,16 16,15.1044967 16,14 L16,2 C16,0.895503268 15.1044967,0 14,0 Z M15,14 C15,14.5524967 14.5524967,15 14,15 L2,15 C1.44750327,15 1,14.5524967 1,14 L1,2 C1,1.448 1.44750327,1 2,1 L14,1 C14.5524967,1 15,1.448 15,2 L15,14 Z"/></svg>