<svg xmlns="http://www.w3.org/2000/svg" width="16" height="16" viewBox="0 0 16 16"><path fill="currentColor" d="M13.9129403,2 C14.4821176,2 14.9987964,2.22812834 15.3756797,2.59743624 C15.7486391,2.9628991 15.9846709,3.46659958 15.9992802,4.02420281 L15.9997241,4.04513803 L16,4.07894282 L16,11.9208043 C16,12.4878449 15.7710032,13.0025869 15.4002802,13.3780564 C15.0334409,13.7495924 14.527845,13.9847291 13.9681403,13.999283 L13.9471261,13.9997252 L13.9131938,14 L2.0869245,14 C1.5166721,14 0.999095032,13.7709931 0.622007951,13.3980537 C0.250403958,13.030537 0.0152171827,12.5232125 0.000711908482,11.9575367 L0.000275740699,11.9365592 L0,11.9021998 L0,4.07919254 C0,3.51220263 0.228976844,2.9974805 0.59968567,2.62202499 C0.966489089,2.2505249 1.47203807,2.01540173 2.03172526,2.00084849 L2.05273874,2.0004063 L2.08667073,2.00013148 L13.9129403,2 Z M13.9129403,3.25548822 L2.0869245,3.25548822 L2.07183184,3.25562203 C1.85095313,3.25954205 1.65145359,3.34935774 1.50552612,3.49473298 C1.35679722,3.64289905 1.26380542,3.84866521 1.25998628,4.0797665 L1.25998628,4.0797665 L1.25998628,11.9020216 L1.25998628,11.917056 C1.26405543,12.137082 1.35421036,12.3358085 1.5001257,12.4811717 C1.64886657,12.6293497 1.8554325,12.7219917 2.08742905,12.7257964 L2.08742905,12.7257964 L13.9129403,12.7257964 L13.928033,12.7256626 C14.1489117,12.7217426 14.3484113,12.6319269 14.4943387,12.4865516 C14.6430676,12.3383856 14.7360594,12.1326194 14.7398786,11.9015181 L14.7398786,11.9015181 L14.7398786,4.07926302 L14.7397421,4.06410771 C14.7357457,3.84231614 14.644201,3.64217414 14.4979675,3.49649405 C14.3484034,3.34749593 14.1416521,3.25548822 13.9129403,3.25548822 L13.9129403,3.25548822 Z M2.37076653,3.86573197 C2.52492936,3.87150183 2.6771675,3.93311467 2.79246928,4.04798805 L2.80284853,4.05857774 L7.68936998,9.30335328 C7.78014084,9.39332203 7.90332679,9.4384586 8.02671618,9.43975701 C8.14632906,9.44101569 8.26661366,9.40109564 8.35828199,9.31910385 L8.36766164,9.31047182 L13.272693,4.25520767 C13.3875299,4.13081117 13.5434315,4.06768628 13.7024532,4.06392427 C13.8635605,4.06011292 14.0277281,4.11742475 14.1545287,4.23323096 C14.2781848,4.34618017 14.3417214,4.49915957 14.3470145,4.65566263 C14.3522354,4.81003149 14.3006038,4.96771309 14.1944545,5.09280944 L14.1846544,5.10409107 L11.3818523,7.98967779 L14.3447967,10.959627 C14.4709026,11.0753874 14.5341131,11.2328635 14.5341131,11.3930327 C14.5341131,11.5522899 14.4714949,11.7143006 14.3456242,11.8396818 C14.2194295,11.9652287 14.0513437,12.0273659 13.9043405,12.0273659 C13.7657428,12.0273659 13.6082747,11.9721487 13.4850902,11.8606073 L13.4739876,11.850312 L10.5196876,8.90775645 L9.27690142,10.1821538 C8.92436914,10.5143314 8.47339348,10.6898058 8.02273707,10.6898058 C7.58491513,10.6898058 7.1472744,10.5242037 6.81684674,10.2107045 L6.80190151,10.1963527 L6.78715947,10.1818456 L6.76749002,10.1622527 L5.56253086,8.87102022 L2.41222397,12.0092071 C2.28983098,12.1309718 2.14769173,12.1930334 1.98607046,12.1967193 C1.80102659,12.1967193 1.63415116,12.1321526 1.52836947,12.0079892 C1.40528657,11.89393 1.34278898,11.7398993 1.34113061,11.5827829 C1.33957864,11.4296675 1.39592644,11.2735401 1.51073226,11.1494458 L1.5210139,11.1385803 L4.72107943,7.93227989 L1.88726368,4.90520705 C1.77171871,4.77977965 1.71888855,4.61781486 1.7265226,4.45828008 C1.73417149,4.29843504 1.80255339,4.14119132 1.92876726,4.02592093 C2.05295926,3.91250232 2.21279259,3.85981948 2.37076653,3.86573197 Z"/></svg>