<svg xmlns="http://www.w3.org/2000/svg" width="16" height="16" viewBox="0 0 16 16"><path fill="#37474F" d="M3.70700654,13 L6.096,10.6110065 L6.08499346,11.8935163 C6.08499346,12.1695163 6.30899346,12.3935163 6.58499346,12.3935163 C6.86099346,12.3935163 7.08499346,12.1695163 7.08499346,11.8935163 L7.08499346,9.39351634 C7.08499346,9.24551634 7.024,9.12603922 6.92700654,9.04350327 C6.83652288,8.95100654 6.7105098,8.89351634 6.57100654,8.89351634 L4.08499346,8.89351634 C3.80899346,8.89351634 3.58499346,9.11751634 3.58499346,9.39351634 C3.58499346,9.66951634 3.80899346,9.89351634 4.08499346,9.89351634 L5.39950327,9.89351634 L3,12.2930196 L3.70700654,13 Z M4.08501961,6.10598693 C3.80901961,6.10598693 3.58501961,6.32998693 3.58501961,6.60598693 C3.58501961,6.88198693 3.80901961,7.10598693 4.08501961,7.10598693 L6.57100654,7.10598693 C6.7105098,7.10598693 6.83652288,7.04797386 6.92700654,6.956 C7.024,6.8734902 7.08499346,6.75398693 7.08499346,6.60598693 L7.08499346,4.10598693 C7.08499346,3.82998693 6.86099346,3.60598693 6.58499346,3.60598693 C6.30899346,3.60598693 6.08501961,3.82998693 6.08501961,4.10598693 L6.09602614,5.38899346 L3.70703268,3 L3.00002614,3.70700654 L5.39903268,6.10598693 L4.08501961,6.10598693 Z M9.41500654,12.3939869 C9.69100654,12.3939869 9.91500654,12.1699869 9.91500654,11.8939869 L9.904,10.6109804 L12.2930196,13 L13,12.2929935 L10.6005229,9.89398693 L11.9150065,9.89398693 C12.1910065,9.89398693 12.4150065,9.66998693 12.4150065,9.39398693 C12.4150065,9.11798693 12.1910065,8.89398693 11.9150065,8.89398693 L9.42899346,8.89398693 C9.28901961,8.89398693 9.16350327,8.952 9.07301961,9.04449673 C8.976,9.1265098 8.91500654,9.24598693 8.91500654,9.39398693 L8.91500654,11.8939869 C8.91500654,12.1699869 9.13900654,12.3939869 9.41500654,12.3939869 Z M9.42849673,7.1065098 L11.9145098,7.1065098 C12.1905098,7.1065098 12.4145098,6.8825098 12.4145098,6.6065098 C12.4145098,6.3305098 12.1905098,6.1065098 11.9145098,6.1065098 L10.6004967,6.1065098 L13,3.70700654 L12.2929935,3 L9.904,5.38899346 L9.9145098,4.1065098 C9.9145098,3.8305098 9.6905098,3.6065098 9.4145098,3.6065098 C9.1385098,3.6065098 8.9145098,3.8305098 8.9145098,4.1065098 L8.9145098,6.6065098 C8.9145098,6.7545098 8.97602614,6.87401307 9.07252288,6.95652288 C9.16300654,7.04849673 9.28899346,7.1065098 9.42849673,7.1065098 Z M14,0 L2,0 C0.895503268,0 0,0.895503268 0,2 L0,14 C0,15.1044967 0.895503268,16 2,16 L14,16 C15.1044967,16 16,15.1044967 16,14 L16,2 C16,0.895503268 15.1044967,0 14,0 Z M15,14 C15,14.5524967 14.5524967,15 14,15 L2,15 C1.44750327,15 1,14.5524967 1,14 L1,2 C1,1.448 1.44750327,1 2,1 L14,1 C14.5524967,1 15,1.448 15,2 L15,14 Z"/></svg>