<svg xmlns="http://www.w3.org/2000/svg" width="16" height="16" viewBox="0 0 16 16"><path fill="#37474F" d="M0,12 L4,12 L4,16 L0,16 L0,12 Z M6,0 L11,0 L11,5 L6,5 L6,0 Z M12,12 L16,12 L16,16 L12,16 L12,12 Z M13.5555556,11.3333333 L15,11.3333333 L15,8.66666667 C15,8.29843747 14.6766927,8 14.2777778,8 L9.22222222,8 L9.22222222,6 L7.77777778,6 L7.77777778,8 L1.72222222,8 C1.32330726,8 1,8.29843747 1,8.66666667 L1,11.3333333 L2.44444444,11.3333333 L2.44444444,9.33333333 L13.5555556,9.33333333 L13.5555556,11.3333333 Z" transform="rotate(90 8 8)"/></svg>