<svg xmlns="http://www.w3.org/2000/svg" width="16" height="16" viewBox="0 0 16 16"><path fill="currentColor" d="M7.99995283,0 C9.13312848,0 10.0588485,0.893406769 10.1108303,2.01391963 C12.0853381,2.84994776 13.4151673,4.80020779 13.4151673,7.00798697 L13.4151673,10.0545806 C14.3003679,10.1224668 15,10.864257 15,11.7685256 C15,12.7172803 14.2294236,13.4874292 13.2804957,13.4874292 L2.71950431,13.4874292 C1.77001038,13.4874292 1,12.7183665 1,11.7685256 C1,10.8645876 1.69854715,10.1224904 2.58483268,10.0545806 L2.58483268,7.00798697 C2.58483268,4.79982999 3.91447324,2.84975886 5.88916967,2.01391963 C5.94113263,0.893076192 6.86757908,0 8.00004717,0 L7.99995283,0 Z M6.74866238,3.10378333 C5.06802652,3.64281203 3.90555803,5.21248399 3.90555803,7.00798697 L3.90555803,10.1812858 C3.90555803,10.8383776 3.37305085,11.371692 2.71742881,11.371692 C2.49871359,11.371692 2.32071591,11.5500759 2.32071591,11.7684925 C2.32071591,11.9872775 2.49870888,12.1651088 2.71945242,12.1651088 L13.2804438,12.1651088 C13.5004515,12.1651088 13.6791803,11.9865408 13.6791803,11.7684925 C13.6791803,11.5504442 13.5004468,11.371692 13.2824674,11.371692 C12.6257605,11.371692 12.0943382,10.8400305 12.0943382,10.1812858 L12.0943382,7.00798697 C12.0943382,5.21305069 10.931681,3.64281203 9.25123384,3.10378333 L8.79242577,2.95657287 L8.79242577,2.11336651 C8.79242577,1.67726991 8.43735967,1.32234402 7.99991509,1.32234402 C7.56303656,1.32234402 7.20740441,1.67745409 7.20740441,2.11336651 L7.20740441,2.95657287 L6.74866238,3.10378333 Z M5.49053222,13.4876654 L6.81130473,13.4876654 C6.81130473,14.144946 7.34343455,14.6776938 7.99995283,14.6776938 C8.65647111,14.6776938 9.18860092,14.144946 9.18860092,13.4876654 L10.5093734,13.4876654 C10.5093734,14.8752841 9.38596207,16 7.99995283,16 C6.61394358,16 5.49053222,14.8752841 5.49053222,13.4876654 Z"/></svg>