<svg xmlns="http://www.w3.org/2000/svg" width="16" height="16" viewBox="0 0 16 16"><path fill="#37474F" d="M3.33333333,12 C3.70133333,12 4,12.2986667 4,12.6666667 L4,12.6666667 L4,15.3333333 C4,15.7013333 3.70133333,16 3.33333333,16 L3.33333333,16 L0.666666667,16 C0.298666667,16 0,15.7013333 0,15.3333333 L0,15.3333333 L0,12.6666667 C0,12.2986667 0.298666667,12 0.666666667,12 L0.666666667,12 Z M9.33333333,12 C9.70133333,12 10,12.2986667 10,12.6666667 L10,12.6666667 L10,15.3333333 C10,15.7013333 9.70133333,16 9.33333333,16 L9.33333333,16 L6.66666667,16 C6.29866667,16 6,15.7013333 6,15.3333333 L6,15.3333333 L6,12.6666667 C6,12.2986667 6.29866667,12 6.66666667,12 L6.66666667,12 Z M15.3333333,12 C15.7013333,12 16,12.2986667 16,12.6666667 L16,12.6666667 L16,15.3333333 C16,15.7013333 15.7013333,16 15.3333333,16 L15.3333333,16 L12.6666667,16 C12.2986667,16 12,15.7013333 12,15.3333333 L12,15.3333333 L12,12.6666667 C12,12.2986667 12.2986667,12 12.6666667,12 L12.6666667,12 Z M3.33333333,6 C3.70133333,6 4,6.29866667 4,6.66666667 L4,6.66666667 L4,9.33333333 C4,9.70133333 3.70133333,10 3.33333333,10 L3.33333333,10 L0.666666667,10 C0.298666667,10 0,9.70133333 0,9.33333333 L0,9.33333333 L0,6.66666667 C0,6.29866667 0.298666667,6 0.666666667,6 L0.666666667,6 Z M9.33333333,6 C9.70133333,6 10,6.29866667 10,6.66666667 L10,6.66666667 L10,9.33333333 C10,9.70133333 9.70133333,10 9.33333333,10 L9.33333333,10 L6.66666667,10 C6.29866667,10 6,9.70133333 6,9.33333333 L6,9.33333333 L6,6.66666667 C6,6.29866667 6.29866667,6 6.66666667,6 L6.66666667,6 Z M15.3333333,6 C15.7013333,6 16,6.29866667 16,6.66666667 L16,6.66666667 L16,9.33333333 C16,9.70133333 15.7013333,10 15.3333333,10 L15.3333333,10 L12.6666667,10 C12.2986667,10 12,9.70133333 12,9.33333333 L12,9.33333333 L12,6.66666667 C12,6.29866667 12.2986667,6 12.6666667,6 L12.6666667,6 Z M3.33333333,0 C3.70133333,0 4,0.298666667 4,0.666666667 L4,0.666666667 L4,3.33333333 C4,3.70133333 3.70133333,4 3.33333333,4 L3.33333333,4 L0.666666667,4 C0.298666667,4 0,3.70133333 0,3.33333333 L0,3.33333333 L0,0.666666667 C0,0.298666667 0.298666667,0 0.666666667,0 L0.666666667,0 Z M9.33333333,0 C9.70133333,0 10,0.298666667 10,0.666666667 L10,0.666666667 L10,3.33333333 C10,3.70133333 9.70133333,4 9.33333333,4 L9.33333333,4 L6.66666667,4 C6.29866667,4 6,3.70133333 6,3.33333333 L6,3.33333333 L6,0.666666667 C6,0.298666667 6.29866667,0 6.66666667,0 L6.66666667,0 Z M15.3333333,0 C15.7013333,0 16,0.298666667 16,0.666666667 L16,0.666666667 L16,3.33333333 C16,3.70133333 15.7013333,4 15.3333333,4 L15.3333333,4 L12.6666667,4 C12.2986667,4 12,3.70133333 12,3.33333333 L12,3.33333333 L12,0.666666667 C12,0.298666667 12.2986667,0 12.6666667,0 L12.6666667,0 Z"/></svg>