<svg xmlns="http://www.w3.org/2000/svg" width="16" height="16" viewBox="0 0 16 16"><path fill="#37474F" d="M7.99998342,2 C9.23528774,2 10.3791281,2.43201026 11.2765834,3.1591541 C12.1340992,3.85393778 12.7665777,4.81820212 13.0391363,5.93246979 C13.8540979,6.08087255 14.5745206,6.50201387 15.1005876,7.09723258 C15.6602614,7.73047568 16,8.56050109 16,9.46796664 C16,10.4588877 15.5949229,11.3574997 14.9406861,12.0083379 C14.2864492,12.6591761 13.3831446,13.0621488 12.387049,13.0621488 L3.61295104,13.0621488 C2.61685539,13.0621488 1.71355079,12.6591761 1.05931393,12.0083379 C0.405077061,11.3574997 0,10.4588877 0,9.46796664 C0,8.5604985 0.33973228,7.73047118 0.899404612,7.09722334 C1.42546754,6.50200326 2.14588881,6.08085589 2.96086366,5.93243964 C3.23342222,4.81818653 3.86590092,3.85392911 4.72341356,3.15914907 C5.62086476,2.43200972 6.76469655,2 7.99998342,2 Z M10.083115,6 L7.08310623,8.8959443 L5.91693758,7.77033317 L5,8.65564359 L7.08312376,10.6666667 L11,6.88532734 L10.083115,6 Z"/></svg>