<svg xmlns="http://www.w3.org/2000/svg" width="16" height="16" viewBox="0 0 16 16"><path fill="#37474F" d="M7.99998342,2 C9.23528774,2 10.3791281,2.43201026 11.2765834,3.1591541 C12.1340992,3.85393778 12.7665777,4.81820212 13.0391363,5.93246979 C13.8540979,6.08087255 14.5745206,6.50201387 15.1005876,7.09723258 C15.6602614,7.73047568 16,8.56050109 16,9.46796664 C16,10.4588877 15.5949229,11.3574997 14.9406861,12.0083379 C14.2864492,12.6591761 13.3831446,13.0621488 12.387049,13.0621488 L3.61295104,13.0621488 C2.61685539,13.0621488 1.71355079,12.6591761 1.05931393,12.0083379 C0.405077061,11.3574997 0,10.4588877 0,9.46796664 C0,8.5604985 0.33973228,7.73047118 0.899404612,7.09722334 C1.42546754,6.50200326 2.14588881,6.08085589 2.96086366,5.93243964 C3.23342222,4.81818653 3.86590092,3.85392911 4.72341356,3.15914907 C5.62086476,2.43200972 6.76469655,2 7.99998342,2 Z M6.18383973,6.01767067 L6.14560069,6.01748232 C6.05568663,6.03996083 5.97188152,6.12862355 5.87867966,6.22182541 C5.7854778,6.31502727 5.69681508,6.39883238 5.67433656,6.48874644 C5.66449425,6.52811571 5.6865611,6.56337517 5.72418279,6.60099686 L5.72418279,6.60099686 L7.46633168,8.34314575 L5.72418279,10.0852946 L5.69235176,10.1223686 C5.67539533,10.1468793 5.66777502,10.1712989 5.67433656,10.1975451 C5.69381794,10.2754706 5.76301609,10.3488025 5.84182522,10.4276117 L5.84182522,10.4276117 L5.87867966,10.4644661 L5.94706144,10.5325532 C6.01416588,10.5978628 6.07816515,10.6519503 6.14560069,10.6688092 C6.18496996,10.6786515 6.22022942,10.6565847 6.25785111,10.618963 L6.25785111,10.618963 L8,8.87681407 L9.74214889,10.618963 L9.77922288,10.650794 C9.80373353,10.6677504 9.82815313,10.6753707 9.85439931,10.6688092 C9.94431337,10.6463307 10.0281185,10.557668 10.1213203,10.4644661 L10.1213203,10.4644661 L10.1581748,10.4276117 C10.2369839,10.3488025 10.3061821,10.2754706 10.3256634,10.1975451 C10.3355058,10.1581758 10.3134389,10.1229163 10.2758172,10.0852946 L10.2758172,10.0852946 L8.53366832,8.34314575 L10.2758172,6.60099686 L10.3076482,6.56392287 C10.3246047,6.53941222 10.332225,6.51499262 10.3256634,6.48874644 C10.3031849,6.39883238 10.2145222,6.31502727 10.1213203,6.22182541 C10.0281185,6.12862355 9.94431337,6.03996083 9.85439931,6.01748232 C9.81503004,6.00764 9.77977058,6.02970685 9.74214889,6.06732854 L9.74214889,6.06732854 L8,7.80947743 L6.25785111,6.06732854 L6.22077712,6.03549751 C6.19626647,6.01854108 6.17184687,6.01092077 6.14560069,6.01748232 Z"/></svg>