<svg xmlns="http://www.w3.org/2000/svg" width="16" height="16" viewBox="0 0 16 16"><path fill="#37474F" d="M13.0360195,1.25976734 L15.7265904,3.72301555 L15.7265904,3.72301555 C15.8966737,3.87882619 15.9873486,4.07971548 15.9987689,4.28359248 C16.010669,4.49603647 15.936253,4.71166525 15.7760395,4.88313432 L13.0358987,7.3949805 C12.662409,7.73735299 12.0892049,7.73753589 11.7154968,7.39540181 C11.3815864,7.08970308 11.3587164,6.57119747 11.6644151,6.23728711 C11.6806834,6.21951749 11.6977271,6.20247372 11.7154968,6.18620543 L12.8117451,5.18257763 L12.8117451,5.18257763 L3.10803156,5.18257763 C2.77668964,5.18257763 2.47568912,5.3014521 2.25319826,5.49521505 C2.10163749,5.62720636 1.9864461,5.79392531 1.92295436,5.98147061 C1.89365137,6.06802736 1.87536065,6.15902022 1.86958928,6.2530826 C1.86830005,6.57447423 1.60739783,6.83433196 1.28600361,6.83433196 L0.516666619,6.83433196 C0.231319525,6.83433196 3.49449406e-17,6.60301244 0,6.31766534 L0,6.31766534 L0,6.31766534 C0.000964447609,5.55006603 0.333553949,4.85358221 0.873652502,4.34183761 C1.41714142,3.82688064 2.1707898,3.49909063 3.00803642,3.47404986 L12.8118925,3.47264555 L11.7154084,2.46880186 C11.3815427,2.16314405 11.3586757,1.64470784 11.6643335,1.31084218 C11.6805996,1.29307494 11.6976411,1.27603345 11.7154084,1.25976734 C12.0891294,0.917621518 12.6622985,0.917621519 13.0360195,1.25976734 Z M2.96398002,14.7402327 L0.273409161,12.2769845 L0.273409161,12.2769845 C0.103325809,12.1211738 0.0126509319,11.9202845 0.00123065082,11.7164075 C-0.0106695148,11.5039635 0.0637465419,11.2883348 0.223959994,11.1168657 L2.96410079,8.6050195 C3.33759055,8.26264701 3.9107946,8.26246411 4.28450278,8.60459819 C4.61841314,8.91029692 4.64128318,9.42880253 4.33558446,9.76271289 C4.31931617,9.78048251 4.3022724,9.79752628 4.28450278,9.81379457 L3.18825444,10.8174224 L3.18825444,10.8174224 L12.891968,10.8174224 C13.2233099,10.8174224 13.5243104,10.6985479 13.7468013,10.504785 C13.898362,10.3727936 14.0135534,10.2060747 14.0770452,10.0185294 C14.1063482,9.93197264 14.1246389,9.84097978 14.1304103,9.7469174 C14.1316995,9.42552577 14.3926017,9.16566804 14.7139959,9.16566804 L15.4833329,9.16566804 C15.76868,9.16566804 15.9999995,9.39698756 15.9999995,9.68233466 L15.9999995,9.68233466 L15.9999995,9.68233466 C15.9990351,10.449934 15.6664456,11.1464178 15.126347,11.6581624 C14.5828581,12.1731194 13.8292097,12.5009094 12.9919631,12.5259501 L3.18810703,12.5273544 L4.28459118,13.5311981 C4.61845684,13.836856 4.64132382,14.3552922 4.33566602,14.6891578 C4.31939991,14.7069251 4.30235842,14.7239666 4.28459118,14.7402327 C3.91087018,15.0823785 3.33770102,15.0823785 2.96398002,14.7402327 Z"/></svg>