<svg xmlns="http://www.w3.org/2000/svg" width="16" height="16" viewBox="0 0 16 16"><path fill="#37474F" d="M14.6731708,8.29848083 C14.8400965,8.1700959 15.0560669,8.10578031 15.2833492,8.13778299 C15.5086463,8.16741757 15.7005937,8.28525103 15.8289608,8.4518798 C15.9577577,8.61906658 16.0225719,8.83539016 15.9928808,9.06095455 C15.7352787,11.0391349 14.7469953,12.7741964 13.3172522,14.0146044 C11.8881871,15.2544241 10.0181459,15.9999225 7.99685791,15.9999225 C5.84094667,15.9999225 3.70976734,15.163246 2.13766826,13.7289559 L2.13766826,13.7289559 L1.40814996,14.4571244 C1.25060825,14.6143754 1.03945319,14.6983537 0.824998184,14.6983537 C0.718772995,14.6983537 0.61171103,14.677856 0.50916713,14.6357578 C0.359842036,14.5739859 0.235836238,14.471707 0.147600246,14.3449009 C0.0583673776,14.2166622 0.00573049599,14.0633313 0.000473714841,13.9014109 L0.000473714841,13.9014109 L3.88012364e-05,11.2714596 C3.88012364e-05,11.0487898 0.0884806765,10.8466574 0.232339505,10.6983314 C0.377084999,10.5490912 0.577959776,10.4543532 0.8012745,10.448038 L0.8012745,10.448038 L3.43294718,10.4477031 C3.59956256,10.4477031 3.75834887,10.4979202 3.89133753,10.5865594 C4.02443519,10.6752712 4.13166278,10.8024345 4.19513278,10.9558805 C4.25701207,11.1049138 4.27236489,11.2647366 4.2450331,11.4167162 C4.21742179,11.5702501 4.14622974,11.7157828 4.03538721,11.8340797 L4.03538721,11.8340797 L3.30601856,12.562698 C4.57187856,13.6941737 6.27432939,14.3524094 7.99685791,14.3524094 C9.60534286,14.3524094 11.0933538,13.7605928 12.2304988,12.7762206 C13.3666834,11.7926799 14.152655,10.4171036 14.357585,8.84845077 C14.3869959,8.62186724 14.5052575,8.42762534 14.6731708,8.29848083 Z M10.7324496,4.86675255 L12.1894617,6.21840226 L6.79732907,11.2196498 L3.81053258,8.44939574 L5.26761847,7.09778093 L6.79730006,8.51631591 L10.7324496,4.86675255 Z M8.00640476,-2.3625546e-13 C10.1651204,-2.3625546e-13 12.2949666,0.836561783 13.8626935,2.27035102 L13.8626935,2.27035102 L14.5911885,1.54323803 C14.7091729,1.42508957 14.8568389,1.3484892 15.01359,1.31734828 C15.1703947,1.28619672 15.3363042,1.30054488 15.490651,1.36437784 C15.640027,1.42615508 15.7640736,1.52844436 15.8523395,1.65526105 C15.9416096,1.78352069 15.9942672,1.93687705 15.9995262,2.09882369 L15.9995262,2.09882369 L15.9999613,4.72920181 C15.9999613,4.95190537 15.9114866,5.15407013 15.7675688,5.30241926 C15.6227795,5.45166665 15.4218453,5.54641303 15.1984621,5.55272893 L15.1984621,5.55272893 L12.5656946,5.5530639 C12.3990302,5.5530639 12.2401977,5.50284365 12.1071701,5.41420107 C11.9740229,5.32547881 11.8667573,5.19829939 11.8032639,5.04483572 C11.741358,4.89577623 11.725999,4.73592536 11.7533426,4.58391908 C11.7809651,4.43036198 11.8521848,4.28480641 11.9630729,4.16649171 L11.9630729,4.16649171 L12.6946765,3.43588163 C11.4330047,2.30537533 9.73163925,1.64772418 8.00640476,1.64772418 C6.39698827,1.64772418 4.90840001,2.2395804 3.77086447,3.2240401 C2.63419135,4.20775343 1.84798126,5.58361585 1.64296813,7.15250529 C1.61629219,7.3589123 1.51519823,7.53744558 1.37007351,7.66485804 C1.22322482,7.79378406 1.03122658,7.87023213 0.825686384,7.87023213 C0.789924805,7.87023213 0.754176374,7.86842562 0.71755454,7.8634465 C0.491898757,7.83395382 0.299641985,7.71604107 0.171108518,7.54923874 C0.0422574755,7.38202428 -0.0225811661,7.16566449 0.00712234765,6.94006351 C0.264841754,4.96148579 1.25343837,3.22608552 2.68378566,1.98546902 C4.11332276,0.74555524 5.98404779,-2.3625546e-13 8.00640476,-2.3625546e-13 Z"/></svg>