<svg xmlns="http://www.w3.org/2000/svg" width="16" height="16" viewBox="0 0 16 16"><path fill="currentColor" d="M9.7444898,15.939951 C12.9510204,15.5807673 15.5208163,13.017502 15.8865306,9.81097143 C16.3665306,5.61831837 13.1077551,2.04933878 9.02285714,2.00362449 L9.02285714,0.122808163 C9.02285714,0.0183183673 8.8922449,-0.0371918367 8.80408163,0.0281142857 L4.93142857,2.87219592 C4.86612245,2.92117551 4.86612245,3.01586939 4.93142857,3.06484898 L8.80408163,5.90893061 C8.8922449,5.97423673 9.02285714,5.91546122 9.02285714,5.81423673 L9.02285714,3.93668571 C11.8930612,3.9824 14.1918367,6.42484898 13.9959184,9.34403265 C13.8293878,11.8550531 11.7820408,13.8926041 9.27102041,14.0526041 C6.60979592,14.2224 4.34693878,12.3219918 3.94204082,9.80770612 C3.86693878,9.34076735 3.45877551,9.00117551 2.98857143,9.00117551 C2.40408163,9.00117551 1.94693878,9.52035918 2.03836735,10.0983184 C2.60653061,13.6803592 5.91428571,16.3677061 9.7444898,15.939951 Z"/></svg>