<svg xmlns="http://www.w3.org/2000/svg" width="16" height="16" viewBox="0 0 16 16"><path fill="#37474F" d="M7.99891176,0 C9.75041176,0 11.1753824,1.48275 11.1753824,3.3053125 L11.1753824,3.3053125 L11.1753824,5.875 L12.2352941,5.875 C13.2083529,5.875 14,6.716125 14,7.75 L14,7.75 L14,14.125 C14,15.158875 13.2083529,16 12.2352941,16 L12.2352941,16 L3.76470588,16 C2.79164706,16 2,15.158875 2,14.125 L2,14.125 L2,7.75 C2,6.716125 2.79164706,5.875 3.76470588,5.875 L3.76470588,5.875 L4.82244118,5.875 L4.82244118,3.3053125 C4.82244118,1.48275 6.24741176,0 7.99891176,0 Z M9.95665991,8 L7.13877033,10.6133865 L6.04339293,9.59759918 L5,10.5654662 L7.1387911,12.5491952 L11,8.96789198 L9.95665991,8 Z M7.99891176,1.25 C6.89611765,1.25 5.99891176,2.172 5.99891176,3.3053125 L5.99891176,3.3053125 L5.99891176,5.875 L9.99891176,5.875 L9.99891176,3.3053125 C9.99891176,2.172 9.10170588,1.25 7.99891176,1.25 Z"/></svg>