<svg xmlns="http://www.w3.org/2000/svg" width="16" height="16" viewBox="0 0 16 16"><path fill="#37474F" d="M7.99891176,0 C9.60838031,0 10.9421297,1.25202395 11.1478571,2.86924357 L9.95358036,2.86909037 C9.75840322,1.9446015 8.95609887,1.25 7.99891176,1.25 C6.89611765,1.25 5.99891176,2.172 5.99891176,3.3053125 L5.99891176,3.3053125 L5.99891176,5.875 L9.99891176,5.875 L9.998,5.869 L11.175,5.869 L11.1753824,5.875 L12.2352941,5.875 C13.2083529,5.875 14,6.716125 14,7.75 L14,7.75 L14,14.125 C14,15.158875 13.2083529,16 12.2352941,16 L12.2352941,16 L3.76470588,16 C2.79164706,16 2,15.158875 2,14.125 L2,14.125 L2,7.75 C2,6.716125 2.79164706,5.875 3.76470588,5.875 L3.76470588,5.875 L4.82244118,5.875 L4.82244118,3.3053125 C4.82244118,1.48275 6.24741176,0 7.99891176,0 Z M6.4365415,8.3456468 C6.26036974,8.31967231 6.11585155,8.38356476 5.86275822,8.63724739 C5.70183471,8.79764451 5.57381149,8.94880298 5.66949631,9.35788382 L5.66949631,9.35788382 L7.05825278,10.7466403 L5.58306229,12.2732026 L5.58941855,12.3315107 C5.60562851,12.4974593 5.6078703,12.5930256 5.913695,12.8989932 C6.06402884,13.0490186 6.20465109,13.1713809 6.61659143,13.0718455 L6.61659143,13.0718455 L8.00402396,11.684413 L9.51013757,13.1398429 L9.57760332,13.1452223 C9.75041839,13.1540453 9.87495004,13.1109793 10.1543668,12.8309202 C10.3053725,12.6799145 10.4284498,12.5378932 10.3293963,12.1262415 L10.3293963,12.1262415 L8.94179661,10.7386418 L10.3963834,9.2334007 L10.4035397,9.15220871 C10.4053134,9.10092948 10.4010673,9.05512411 10.3906488,9.01345037 C10.3613245,8.89615296 10.2734506,8.77298566 10.1159443,8.61593874 C9.94926848,8.44908627 9.78876347,8.31878737 9.3856903,8.41120426 L9.3856903,8.41120426 L7.99602544,9.80086912 L6.50436355,8.35940459 Z"/></svg>