<svg xmlns="http://www.w3.org/2000/svg" width="16" height="16" viewBox="0 0 16 16"><path fill="currentColor" d="M15.6666667,6.66666667 L13.7633333,6.66666667 C13.63,6.14 13.4606667,5.55533333 13.2446667,5.112 L14.5993333,3.75733333 C14.7293333,3.62733333 14.7293333,3.416 14.5993333,3.286 L12.7133333,1.40133333 C12.5833333,1.27066667 12.372,1.27066667 12.242,1.40133333 L10.8866667,2.75533333 C10.4433333,2.53933333 9.85933333,2.37 9.33333333,2.23733333 L9.33333333,0.333333333 C9.33333333,0.149333333 9.184,0 9,0 L7,0 C6.816,0 6.66666667,0.149333333 6.66666667,0.333333333 L6.66666667,2.23733333 C6.14,2.37 5.55533333,2.53933333 5.11266667,2.75533333 L3.75733333,1.40133333 C3.62733333,1.27066667 3.416,1.27066667 3.286,1.40133333 L1.4,3.286 C1.27,3.416 1.27,3.62733333 1.4,3.75733333 L2.75533333,5.11266667 C2.54,5.55466667 2.37,6.13933333 2.23666667,6.66666667 L0.333333333,6.66666667 C0.149333333,6.66666667 0,6.816 0,7 L0,9 C0,9.184 0.149333333,9.33333333 0.333333333,9.33333333 L2.23666667,9.33333333 C2.37066667,9.86066667 2.54066667,10.4453333 2.756,10.8873333 L1.4,12.2433333 C1.27,12.3733333 1.27,12.584 1.4,12.7146667 L3.286,14.6 C3.41133333,14.7253333 3.63266667,14.7253333 3.75733333,14.6 L5.11266667,13.2446667 C5.55466667,13.46 6.13933333,13.63 6.66733333,13.764 L6.66733333,15.6666667 C6.66733333,15.8506667 6.81666667,16 7.00066667,16 L9.00066667,16 C9.18466667,16 9.334,15.8506667 9.334,15.6666667 L9.334,13.764 C9.86066667,13.63 10.446,13.46 10.888,13.2453333 L12.244,14.6 C12.374,14.73 12.5853333,14.73 12.7153333,14.6 L14.6006667,12.7146667 C14.7306667,12.5846667 14.7306667,12.3733333 14.6006667,12.2433333 L13.246,10.888 C13.4613333,10.446 13.6313333,9.86133333 13.7646667,9.334 L15.6666667,9.334 C15.8506667,9.334 16,9.18466667 16,9.00066667 L16,7.00066667 C16,6.816 15.8506667,6.66666667 15.6666667,6.66666667 Z M8,10.6666667 C6.52933333,10.6666667 5.33333333,9.47 5.33333333,8 C5.33333333,6.53 6.52933333,5.33333333 8,5.33333333 C9.47066667,5.33333333 10.6666667,6.53 10.6666667,8 C10.6666667,9.47 9.47066667,10.6666667 8,10.6666667 Z"/></svg>