<svg xmlns="http://www.w3.org/2000/svg" width="16" height="16" viewBox="0 0 16 16"><path fill="#37474F" d="M8.06171875,0 L8.3279375,0.18375 C8.334,0.18790625 8.997,0.63925 10.1075,1.08384375 C11.1255625,1.49140625 12.7408438,1.97728125 14.6546563,1.97728125 L14.6546563,1.97728125 L15.123375,1.97728125 L15.123375,6.781375 C15.123375,7.82975 14.953,8.86275 14.6169688,9.85165625 C14.2890625,10.8166875 13.81075,11.71925 13.1953438,12.53425 C12.5799375,13.3492188 11.8428125,14.0563438 11.004375,14.6359063 C10.14525,15.2298125 9.19834375,15.6764687 8.19,15.9634688 L8.19,15.9634688 L8.0616875,16 L7.933375,15.9634688 C6.9250625,15.6764687 5.97815625,15.2298125 5.119,14.6359062 C4.28059375,14.056375 3.5434375,13.3492188 2.92803125,12.53425 C2.312625,11.7192812 1.83434375,10.8167187 1.50640625,9.85165625 C1.170375,8.86271875 1,7.82975 1,6.781375 L1,6.781375 L1,1.9773125 L1.46875,1.9773125 C5.15428125,1.9773125 7.7694375,0.20171875 7.7954375,0.18378125 L7.7954375,0.18378125 L8.06171875,0 Z M8.06171875,2.20021875 L7.849625,2.3078125 C6.863125,2.80828125 5.26978125,3.4611875 3.28103125,3.72965625 L3.28103125,3.72965625 L2.875,3.78446875 L2.875,6.78134375 C2.875,8.4634375 3.41075,10.0620312 4.424375,11.404375 C5.31653125,12.5858125 6.51859375,13.4774687 7.90075,13.9829062 L7.90075,13.9829062 L8.06171875,14.0417812 L8.2226875,13.9829062 C9.60484375,13.4774687 10.8069375,12.5858437 11.6990625,11.404375 C12.7126563,10.0620312 13.2484375,8.4634375 13.2484375,6.78134375 L13.2484375,6.78134375 L13.2484375,3.78446875 L12.8424063,3.72965625 C10.8536875,3.46121875 9.2603125,2.80828125 8.2738125,2.3078125 L8.2738125,2.3078125 L8.06171875,2.20021875 Z M8.06171875,3.24928125 C9.04878125,3.72971875 10.5146563,4.30515625 12.3109375,4.59821875 L12.3109375,4.59821875 L12.3109375,6.781375 C12.3109375,8.25790625 11.8406563,9.66115625 10.9509063,10.8394687 C10.202625,11.830375 9.206375,12.5889375 8.06171875,13.0412187 C6.91709375,12.5889375 5.9208125,11.8304062 5.17253125,10.8394687 C4.28278125,9.66115625 3.8125,8.25790625 3.8125,6.781375 L3.8125,6.781375 L3.8125,4.59821875 C5.60878125,4.3051875 7.07465625,3.72971875 8.06171875,3.24928125 Z M8.0616875,4.29509375 L7.06065625,6.323375 L4.82234375,6.648625 L6.44203125,8.2274375 L6.0596875,10.4567187 L8.06171875,9.4041875 L10.06375,10.4567187 L9.68140625,8.2274375 L11.3010313,6.648625 L9.06271875,6.323375 L8.0616875,4.29509375 Z M8.06171875,6.41340625 L8.4401875,7.18025 L9.2864375,7.30321875 L8.67409375,7.900125 L8.81865625,8.74296875 L8.06171875,8.34503125 L7.30478125,8.74296875 L7.44934375,7.900125 L6.837,7.30321875 L7.68325,7.18025 L8.06171875,6.41340625 Z"/></svg>