<svg xmlns="http://www.w3.org/2000/svg" width="16" height="16" viewBox="0 0 16 16"><path fill="#37474F" d="M11.9559386,0.351100755 C11.4618146,0.882161701 11.4289635,0.918029729 11.103982,1.28099275 C10.94217,1.46193892 10.700538,1.72479268 10.5669616,1.86558807 C10.4331137,2.00638346 10.2954649,2.16109779 10.2612563,2.2095464 C10.2267763,2.257995 10.1225215,2.37577061 10.0291267,2.47106179 C9.93600332,2.56662064 9.717177,2.80243954 9.54287613,2.99543094 C9.36884676,3.18815467 9.10956744,3.46947778 8.96703168,3.62071238 C8.82476742,3.77194697 8.66594187,3.94834272 8.614086,4.01311931 C8.56250164,4.07789589 8.44494357,4.20771674 8.3529062,4.30166956 C8.26086883,4.39562238 8.10693021,4.56184659 8.01082039,4.67105671 C7.91471057,4.77999915 7.74529664,4.96469273 7.6342545,5.08139765 C7.52348386,5.19783491 7.44122036,5.29312608 7.45153724,5.29312608 C7.46185411,5.29312608 7.36655878,5.39939181 7.23976983,5.52921265 C7.11270939,5.65930117 6.8664619,5.92295794 6.69216104,6.11568167 C6.51813167,6.3084054 6.28220106,6.56858244 6.16790096,6.69385286 C6.05360086,6.81912329 5.84237644,7.0519978 5.69821171,7.21153022 C5.55404697,7.37106264 5.27847785,7.67219347 5.08571521,7.88070984 C4.89268107,8.08922621 4.653221,8.35020626 4.55331023,8.46075473 C4.45367095,8.57103553 4.28887246,8.75171403 4.18706121,8.8622625 C4.08552145,8.9725433 4.00190048,9.10798526 4.00108599,9.16339333 L4,9.26377028 L5.58364011,9.26377028 C7.16809471,9.26377028 7.34864,9.28170429 7.12546973,9.41768159 C7.10266401,9.43160052 7.07008441,9.50521028 7.05298012,9.58122909 C7.02474446,9.70810554 6.94302396,9.91474821 6.77903997,10.2742315 C6.7437454,10.3515887 6.71496676,10.4380467 6.71496676,10.4661522 C6.71496676,10.4945254 6.67369926,10.6069476 6.62320088,10.7158901 C6.572974,10.8251002 6.51948915,10.9744611 6.50455683,11.0480708 C6.48962452,11.1216806 6.45948839,11.1819067 6.43776865,11.1819067 C6.41604892,11.1819067 6.39813014,11.2108153 6.39813014,11.2458803 C6.39813014,11.281213 6.37450993,11.3666003 6.34545978,11.4356596 C6.31640964,11.504719 6.28925997,11.5713693 6.28491602,11.5834145 C6.26754024,11.6340045 6.19885158,11.7954106 6.11876006,11.9739477 C6.07206263,12.0780721 6.02156425,12.2236856 6.00663193,12.2972953 C5.99169961,12.3709051 5.96427845,12.4311313 5.94554518,12.4311313 C5.9270834,12.4311313 5.89939074,12.4913574 5.88445843,12.5649672 C5.86952611,12.6385769 5.81604126,12.7879378 5.76581438,12.8971479 C5.715316,13.0060904 5.67350551,13.1217246 5.67269102,13.1535776 C5.67187653,13.1856982 5.6414689,13.2507425 5.60481685,13.298388 C5.5681648,13.3460336 5.53830016,13.4124162 5.53830016,13.4458752 C5.53830016,13.4793342 5.49703267,13.5960391 5.44680578,13.7049816 C5.3963074,13.8141917 5.34282256,13.9635526 5.32789024,14.0371623 C5.31295792,14.1107721 5.28309329,14.1709983 5.26137356,14.1709983 C5.23938232,14.1709983 5.22173504,14.1999068 5.22173504,14.2355072 C5.22173504,14.2909153 4.92145972,15.0765321 4.74362939,15.4871407 C4.71186428,15.5607505 4.67113978,15.6812028 4.653221,15.7548126 C4.63557372,15.8284223 4.60082214,15.913542 4.57638744,15.9443243 C4.54353634,15.9855457 4.55901166,16 4.63638821,16 C4.75367477,16 5.23123742,15.5240795 6.11007216,14.5310169 C6.20645348,14.4223421 6.32564052,14.2901122 6.37559591,14.2368455 C6.4252798,14.1838465 6.56781556,14.0269908 6.69216104,13.8883368 C6.81677801,13.7499504 7.02040052,13.5280505 7.14474599,13.3955529 C7.26909147,13.2630554 7.49307623,13.0178679 7.6423994,12.8508407 C7.79172257,12.6838135 7.94973364,12.5165186 7.99317311,12.4793122 C8.03661257,12.4418381 8.07245014,12.3952632 8.07245014,12.3754555 C8.07245014,12.3559155 8.1894652,12.2212765 8.33254395,12.0764661 C8.64856608,11.7565982 9.07780233,11.2897785 9.19753236,11.1355995 C9.24613026,11.073232 9.36395982,10.9412697 9.45952665,10.8419635 C9.55509348,10.7429249 9.7657749,10.5151362 9.92758692,10.3360637 C10.0893989,10.1569912 10.2965509,9.93268222 10.3883168,9.83765872 C10.4798112,9.74236754 10.6527545,9.55098217 10.7727561,9.41232815 C10.8927576,9.27340646 11.0621715,9.08657151 11.149322,8.99663377 C11.2364724,8.9069637 11.4400949,8.68693744 11.6019069,8.50786498 C11.7634474,8.32879251 12.004808,8.06915082 12.1375699,7.93103214 C12.2706032,7.79291347 12.4128675,7.62990132 12.454135,7.56833679 C12.495131,7.50703994 12.5950418,7.3980975 12.6762193,7.32609377 C12.7571253,7.25409004 12.823642,7.17860658 12.823642,7.15879886 C12.823642,7.13872347 12.8643665,7.08224471 12.9140504,7.03299309 C13.0150471,6.93368684 13.0212915,6.90504595 12.9626483,6.81376985 C12.9295257,6.76210918 12.6452686,6.74685189 11.3985559,6.72972089 L9.87491657,6.70857482 L9.90233773,6.61435432 C9.91754154,6.56242599 9.94197624,6.46472576 9.95690856,6.39727246 C9.97184088,6.32981915 10.001977,6.27467875 10.0236967,6.27467875 C10.0454165,6.27467875 10.0633353,6.24336114 10.0633353,6.20535174 C10.0633353,6.16707467 10.1046028,6.04662234 10.1551011,5.93767989 C10.205328,5.82846978 10.2588129,5.67910889 10.2737452,5.60549913 C10.2886775,5.53188937 10.3141982,5.47166321 10.330488,5.47166321 C10.3470493,5.47166321 10.3885883,5.37637203 10.4230684,5.2596671 C10.4572769,5.14322985 10.5113048,5.00778789 10.5425269,4.95853627 C10.5740205,4.90955233 10.613659,4.79418576 10.6307633,4.70210664 C10.6475961,4.61002753 10.6788182,4.53481174 10.6997235,4.53481174 C10.7209002,4.53481174 10.7513078,4.46441404 10.7675976,4.37875905 C10.7841589,4.29283639 10.8134806,4.22243869 10.8330283,4.22243869 C10.8528476,4.22243869 10.8933006,4.12206175 10.9231652,3.99920037 C10.9530299,3.87660666 10.9937544,3.76632586 11.0135736,3.75401296 C11.0333929,3.74196772 11.0741174,3.63168692 11.103982,3.50882555 C11.1338467,3.38623184 11.1767431,3.28558722 11.1990059,3.28558722 C11.2215401,3.28558722 11.2405448,3.25052221 11.2413593,3.20769472 C11.2421738,3.16459955 11.2823553,3.04923298 11.3304102,2.95099741 C11.3784652,2.85302952 11.4183752,2.75425861 11.4191897,2.7315065 C11.4210901,2.68626996 11.6160247,2.18465291 11.7186505,1.96194994 C11.7542166,1.8843251 11.7962985,1.758787 11.8115024,1.68330354 C11.8267062,1.60755241 11.8554848,1.54572021 11.8753041,1.54572021 C11.8951233,1.54572021 11.924988,1.48415569 11.9418208,1.4089399 C11.9586536,1.33372411 12.0007355,1.21835754 12.0357586,1.15251027 C12.0705102,1.08666299 12.1115062,0.967549021 12.1269815,0.88778281 C12.1424568,0.8080166 12.170964,0.742704669 12.1905117,0.742704669 C12.210331,0.742704669 12.2515985,0.637509632 12.2825491,0.508491802 C12.3134997,0.379741643 12.3558532,0.263572061 12.3764869,0.250188468 C12.3971207,0.236804876 12.4196549,0.177381726 12.4264423,0.118226247 C12.4511485,-0.0948405435 12.3026398,-0.0214984572 11.9559386,0.351100755"/></svg>