<svg xmlns="http://www.w3.org/2000/svg" width="16" height="16" viewBox="0 0 16 16"><path fill="#37474F" d="M15.5182185,1.45102521 C15.2174118,1.15028571 14.8561008,1 14.4336807,1 L1.53552941,1 C1.11327731,1 0.751764706,1.15028571 0.45102521,1.45102521 C0.150352941,1.75183193 0,2.11321008 0,2.53556303 L0,12.9769748 C0,13.3993613 0.150352941,13.7604706 0.45102521,14.0613782 C0.751764706,14.3621849 1.1132437,14.5123025 1.53552941,14.5123025 L14.4336807,14.5123025 C14.8560672,14.5123025 15.2173782,14.3621849 15.5182185,14.0613782 C15.8188908,13.7604706 15.9691429,13.3991597 15.9691429,12.9769748 L15.9691429,2.53556303 C15.9691429,2.11321008 15.8188908,1.75173109 15.5182185,1.45102521 Z M4.91371429,12.9766387 C4.91371429,13.0664874 4.88484034,13.1398655 4.82719328,13.1975126 C4.76964706,13.2550252 4.69613445,13.2836303 4.60645378,13.2836303 L1.53552941,13.2836303 C1.44605042,13.2836303 1.37240336,13.2549916 1.31478992,13.1975126 C1.25721008,13.1398655 1.22847059,13.0664874 1.22847059,12.9766387 L1.22847059,11.1339496 C1.22847059,11.0442353 1.25721008,10.9708235 1.31478992,10.9134454 C1.37240336,10.8556639 1.44605042,10.8269244 1.53552941,10.8269244 L4.60655462,10.8269244 C4.69620168,10.8269244 4.76984874,10.8556639 4.82729412,10.9134454 C4.88480672,10.9708235 4.91371429,11.0442353 4.91371429,11.1339496 L4.91371429,12.9766387 L4.91371429,12.9766387 Z M4.91371429,9.29163025 C4.91371429,9.38114286 4.88484034,9.45478992 4.82719328,9.51226891 C4.76964706,9.56988235 4.69613445,9.59862185 4.60645378,9.59862185 L1.53552941,9.59862185 C1.44605042,9.59862185 1.37240336,9.56988235 1.31478992,9.51226891 C1.25721008,9.4547563 1.22847059,9.38114286 1.22847059,9.29163025 L1.22847059,7.44897479 C1.22847059,7.35942857 1.25721008,7.28581513 1.31478992,7.22823529 C1.37240336,7.17078992 1.44605042,7.14201681 1.53552941,7.14201681 L4.60655462,7.14201681 C4.69620168,7.14201681 4.76971429,7.1707563 4.82729412,7.22823529 C4.88480672,7.28581513 4.91371429,7.35942857 4.91371429,7.44897479 L4.91371429,9.29163025 L4.91371429,9.29163025 Z M4.91371429,5.60645378 C4.91371429,5.69606723 4.88484034,5.76957983 4.82719328,5.82719328 C4.76964706,5.88463866 4.69613445,5.91351261 4.60645378,5.91351261 L1.53552941,5.91351261 C1.44605042,5.91351261 1.37240336,5.88463866 1.31478992,5.82719328 C1.25721008,5.76954622 1.22847059,5.69606723 1.22847059,5.60645378 L1.22847059,3.76386555 C1.22847059,3.6742521 1.25721008,3.60063866 1.31478992,3.54312605 C1.37240336,3.48554622 1.44605042,3.45680672 1.53552941,3.45680672 L4.60655462,3.45680672 C4.69620168,3.45680672 4.76971429,3.48554622 4.82729412,3.54312605 C4.88480672,3.60063866 4.91371429,3.6742521 4.91371429,3.76386555 L4.91371429,5.60645378 L4.91371429,5.60645378 Z M9.82729412,12.9766387 C9.82729412,13.0664874 9.79855462,13.1398655 9.74114286,13.1975126 C9.68363025,13.2550252 9.61005042,13.2836303 9.52030252,13.2836303 L6.44907563,13.2836303 C6.35956303,13.2836303 6.28594958,13.2549916 6.22833613,13.1975126 C6.1707563,13.1398655 6.14201681,13.0664874 6.14201681,12.9766387 L6.14201681,11.1339496 C6.14201681,11.0442353 6.1707563,10.9708235 6.22833613,10.9134454 C6.28594958,10.8556639 6.35956303,10.8269244 6.44907563,10.8269244 L9.52016807,10.8269244 C9.60988235,10.8269244 9.6834958,10.8556639 9.7410084,10.9134454 C9.79828571,10.9708235 9.82705882,11.0442353 9.82705882,11.1339496 L9.82705882,12.976605 L9.82729412,12.976605 L9.82729412,12.9766387 Z M9.82729412,9.29163025 C9.82729412,9.38114286 9.79855462,9.45478992 9.74114286,9.51226891 C9.68363025,9.56988235 9.61005042,9.59862185 9.52030252,9.59862185 L6.44907563,9.59862185 C6.35956303,9.59862185 6.28594958,9.56988235 6.22833613,9.51226891 C6.1707563,9.4547563 6.14201681,9.38114286 6.14201681,9.29163025 L6.14201681,7.44897479 C6.14201681,7.35942857 6.1707563,7.28581513 6.22833613,7.22823529 C6.28594958,7.17078992 6.35956303,7.14201681 6.44907563,7.14201681 L9.52016807,7.14201681 C9.60988235,7.14201681 9.6834958,7.1707563 9.7410084,7.22823529 C9.79828571,7.28581513 9.82705882,7.35942857 9.82705882,7.44897479 L9.82705882,9.29163025 L9.82729412,9.29163025 Z M9.82729412,5.60645378 C9.82729412,5.69606723 9.79855462,5.76957983 9.74114286,5.82719328 C9.68363025,5.88463866 9.61005042,5.91351261 9.52030252,5.91351261 L6.44907563,5.91351261 C6.35956303,5.91351261 6.28594958,5.88463866 6.22833613,5.82719328 C6.1707563,5.76954622 6.14201681,5.69606723 6.14201681,5.60645378 L6.14201681,3.76386555 C6.14201681,3.6742521 6.1707563,3.60063866 6.22833613,3.54312605 C6.28594958,3.48554622 6.35956303,3.45680672 6.44907563,3.45680672 L9.52016807,3.45680672 C9.60988235,3.45680672 9.6834958,3.48554622 9.7410084,3.54312605 C9.79828571,3.60063866 9.82705882,3.6742521 9.82705882,3.76386555 L9.82705882,5.60645378 L9.82729412,5.60645378 L9.82729412,5.60645378 Z M14.7407059,12.9766387 C14.7407059,13.0664874 14.7119664,13.1398655 14.6545882,13.1975126 C14.5968403,13.2550252 14.5232269,13.2836303 14.4337143,13.2836303 L11.3629916,13.2836303 C11.2731429,13.2836303 11.199563,13.2549916 11.1421513,13.1975126 C11.0846387,13.1398655 11.0561008,13.0664874 11.0561008,12.9766387 L11.0561008,11.1339496 C11.0561008,11.0442353 11.0846387,10.9708235 11.1421513,10.9134454 C11.199563,10.8556639 11.2731429,10.8269244 11.3629916,10.8269244 L14.4337143,10.8269244 C14.5232269,10.8269244 14.5968739,10.8556639 14.6545882,10.9134454 C14.7119664,10.9708235 14.7407059,11.0442353 14.7407059,11.1339496 L14.7407059,12.9766387 Z M14.7407059,9.29163025 C14.7407059,9.38114286 14.7119664,9.45478992 14.6545882,9.51226891 C14.5968403,9.56988235 14.5232269,9.59862185 14.4337143,9.59862185 L11.3629916,9.59862185 C11.2731429,9.59862185 11.199563,9.56988235 11.1421513,9.51226891 C11.0846387,9.4547563 11.0561008,9.38114286 11.0561008,9.29163025 L11.0561008,7.44897479 C11.0561008,7.35942857 11.0846387,7.28581513 11.1421513,7.22823529 C11.199563,7.17078992 11.2731429,7.14201681 11.3629916,7.14201681 L14.4337143,7.14201681 C14.5232269,7.14201681 14.5968739,7.1707563 14.6545882,7.22823529 C14.7119664,7.28581513 14.7407059,7.35942857 14.7407059,7.44897479 L14.7407059,9.29163025 Z M14.7407059,5.60645378 C14.7407059,5.69606723 14.7119664,5.76957983 14.6545882,5.82719328 C14.5968403,5.88463866 14.5232269,5.91351261 14.4337143,5.91351261 L11.3629916,5.91351261 C11.2731429,5.91351261 11.199563,5.88463866 11.1421513,5.82719328 C11.0846387,5.76954622 11.0561008,5.69606723 11.0561008,5.60645378 L11.0561008,3.76386555 C11.0561008,3.6742521 11.0846387,3.60063866 11.1421513,3.54312605 C11.199563,3.48554622 11.2731429,3.45680672 11.3629916,3.45680672 L14.4337143,3.45680672 C14.5232269,3.45680672 14.5968739,3.48554622 14.6545882,3.54312605 C14.7119664,3.60063866 14.7407059,3.6742521 14.7407059,3.76386555 L14.7407059,5.60645378 Z"/></svg>