<svg xmlns="http://www.w3.org/2000/svg" width="16" height="16" viewBox="0 0 16 16"><path fill="#37474F" d="M15.7914675,3.55093759 C15.6628978,3.6779933 15.4852944,3.75664894 15.2890535,3.75664894 L14.2167002,3.75664894 L14.2167002,15.2965426 C14.2167002,15.4909184 14.1370606,15.6669135 14.0081677,15.7942887 C13.879598,15.9213444 13.7019947,16 13.5057537,16 L3.49424626,16 C3.29800533,16 3.12040198,15.9213444 2.9918323,15.7942887 C2.86293936,15.6669135 2.78329977,15.4909184 2.78329977,15.2965426 L2.78329977,3.75664894 L1.71094649,3.75664894 C1.51470556,3.75664894 1.33710221,3.6779933 1.20853253,3.55093759 C1.0796396,3.42356243 1,3.24756732 1,3.05319149 C1,2.85881566 1.0796396,2.68282055 1.20853253,2.55544539 C1.33710221,2.42838968 1.51470556,2.34973404 1.71094649,2.34973404 L5.28617664,2.34973404 L5.28617664,0.703457447 C5.28617664,0.509081617 5.36581623,0.333086506 5.49470917,0.205711347 C5.62327885,0.078655637 5.8008822,0 5.99712313,0 L11.0028769,0 C11.1991178,0 11.3767211,0.078655637 11.5052908,0.205711347 C11.6341838,0.333086506 11.7138234,0.509081617 11.7138234,0.703457447 L11.7138234,2.34973404 L15.2890535,2.34973404 C15.4852944,2.34973404 15.6628978,2.42838968 15.7914675,2.55544539 C15.9203604,2.68282055 16,2.85881566 16,3.05319149 C16,3.24756732 15.9203604,3.42356243 15.7914675,3.55093759 Z M6.71022727,1.40425532 L6.71022727,2.34042553 L10.2897727,2.34042553 L10.2897727,1.40425532 L6.71022727,1.40425532 Z M12.8039773,14.5957447 L12.8039773,3.75886525 L4.21022727,3.75886525 L4.21022727,14.5957447 L12.8039773,14.5957447 Z M7.54829545,5.39846169 L7.54829545,12.9419638 C7.54829545,13.1363205 7.46874391,13.3122939 7.34000686,13.4396549 C7.2115588,13.5667301 7.03412138,13.6453901 6.83806818,13.6453901 C6.64201499,13.6453901 6.46457756,13.5667301 6.33612951,13.4396549 C6.20739245,13.3122939 6.12784091,13.1363205 6.12784091,12.9419638 L6.12784091,5.39846169 C6.12784091,5.20410502 6.20739245,5.02813167 6.33612951,4.90077059 C6.46457756,4.77369542 6.64201499,4.69503546 6.83806818,4.69503546 C7.03412138,4.69503546 7.2115588,4.77369542 7.34000686,4.90077059 C7.46874391,5.02813167 7.54829545,5.20410502 7.54829545,5.39846169 Z M10.8721591,5.39846169 L10.8721591,12.9419638 C10.8721591,13.1363205 10.7926076,13.3122939 10.6638705,13.4396549 C10.5354224,13.5667301 10.357985,13.6453901 10.1619318,13.6453901 C9.96587862,13.6453901 9.7884412,13.5667301 9.65999314,13.4396549 C9.53125609,13.3122939 9.45170455,13.1363205 9.45170455,12.9419638 L9.45170455,5.39846169 C9.45170455,5.20410502 9.53125609,5.02813167 9.65999314,4.90077059 C9.7884412,4.77369542 9.96587862,4.69503546 10.1619318,4.69503546 C10.357985,4.69503546 10.5354224,4.77369542 10.6638705,4.90077059 C10.7926076,5.02813167 10.8721591,5.20410502 10.8721591,5.39846169 Z"/></svg>