<svg xmlns="http://www.w3.org/2000/svg" width="16" height="16" viewBox="0 0 16 16"><g fill="none" fill-rule="evenodd"><path fill="#37474F" fill-rule="nonzero" d="M4.8,8.6 L11.2,8.6 L11.2,7 L4.8,7 L4.8,8.6 Z M1.52,7.8 C1.52,5.96 2.96,4.52 4.8,4.52 L7.2,4.52 L7.2,3 L4.8,3 C2.16,3 0,5.16 0,7.8 C0,10.44 2.16,12.6 4.8,12.6 L7.2,12.6 L7.2,11.08 L4.8,11.08 C2.96,11.08 1.52,9.64 1.52,7.8 Z M11.2,3 L8.8,3 L8.8,4.52 L11.2,4.52 C13.04,4.52 14.48,5.96 14.48,7.8 C14.48,9.64 13.0400314,11.08 11.2,11.08 L8.8,11.08 L8.8,12.6 L11.2,12.6 C13.84,12.6 16,10.44 16,7.8 C16,5.16 13.84,3 11.2,3 Z"/><line x1="3.5" x2="12.5" y1="14.5" y2="1.5" fill="#FFF" fill-rule="nonzero" stroke="#37474F"/></g></svg>