<svg xmlns="http://www.w3.org/2000/svg" width="16" height="16" viewBox="0 0 16 16"><path fill="currentColor" d="M16,8.46796664 C16,9.45888769 15.5949229,10.3574997 14.9406861,11.0083379 C14.2864492,11.6591761 13.3831446,12.0621488 12.387049,12.0621488 L8.76905647,12.0621488 L8.76905647,15.3333333 L7.23091037,15.3333333 L7.23091037,12.0621488 L3.61295104,12.0621488 C2.61685539,12.0621488 1.71355079,11.6591761 1.05931393,11.0083379 C0.405077061,10.3574997 0,9.45888769 0,8.46796664 C0,7.5604985 0.33973228,6.73047118 0.899404612,6.09722334 C1.42546754,5.50200326 2.14588881,5.08085589 2.96086366,4.93243964 C3.23342222,3.81818653 3.86590092,2.85392911 4.72341356,2.15914907 C5.62086476,1.43200972 6.76469655,1 7.99998342,1 C9.23528774,1 10.3791281,1.43201026 11.2765834,2.1591541 C12.1340992,2.85393778 12.7665777,3.81820212 13.0391363,4.93246979 C13.8540979,5.08087255 14.5745206,5.50201387 15.1005876,6.09723258 C15.6602614,6.73047568 16,7.56050109 16,8.46796664 Z M5.57614391,3.44578354 C4.92866808,4.01742981 4.48514058,4.81696598 4.37686467,5.72863162 L4.29667601,6.40394011 L3.61311684,6.40394011 C3.04103845,6.40394011 2.52236025,6.63553134 2.14665821,7.00925525 C1.77096192,7.38297342 1.53814611,7.89891168 1.53814611,8.46796664 C1.53814611,9.03702538 1.77094838,9.55296766 2.14663032,9.92668741 C2.52231062,10.3004055 3.0409606,10.5319932 3.61301736,10.5319932 L7.23097669,10.5319932 L7.23097669,8.37814845 L6.36215521,9.24243137 L5.27453256,8.16045881 L8.00001658,5.449095 L10.7255006,8.16045881 L9.63787795,9.24243137 L8.76905647,8.37814845 L8.76905647,10.5319932 L12.387049,10.5319932 C12.9590732,10.5319932 13.4776975,10.3004051 13.8533601,9.92668865 C14.2290269,9.55296815 14.4618207,9.03702539 14.4618207,8.46796664 C14.4618207,7.89891545 14.2289998,7.38298074 13.8533044,7.00926337 C13.4775982,6.63553538 12.9589175,6.40394011 12.38685,6.40394011 L11.7032908,6.40394011 L11.6231014,5.72862547 C11.5148414,4.81696328 11.0713224,4.01742869 10.4238478,3.44578354 C9.77621491,2.8739986 8.9245167,2.53018859 7.99998342,2.53018859 C7.07546606,2.53018859 6.22377634,2.87399901 5.57614391,3.44578354 Z"/></svg>