<svg xmlns="http://www.w3.org/2000/svg" width="16" height="16" viewBox="0 0 16 16"><path fill="#37474F" d="M1.70348501,15 L0,14.49929 C0.484996057,12.7328569 1.53166669,11.1416335 2.94725308,10.0187806 C3.52411284,9.56122028 4.14568697,9.18913472 4.80019922,8.90573038 C3.73046305,7.9807155 3.04867946,6.59062801 3.04867946,5.03870643 C3.04867946,2.2603637 5.23330889,0 7.91856228,0 C10.6038157,0 12.7884451,2.2603637 12.7884451,5.03870643 C12.7884451,6.56259448 12.1311437,7.93051166 11.0946113,8.85525171 C11.7853821,9.14117539 12.4407797,9.52507902 13.0470359,10.0029774 C14.4582836,11.1154322 15.5069908,12.6940589 16,14.4479868 L14.2995697,14.9596445 C13.4915676,12.0851083 10.9040218,10.0774587 8.0071056,10.0774587 C5.09137394,10.0774587 2.49922386,12.1016445 1.70348501,15 Z M4.81954594,5.03875223 C4.81954594,6.80678851 6.20976467,8.24520178 7.91856228,8.24520178 C9.62735989,8.24520178 11.0175786,6.80678851 11.0175786,5.03875223 C11.0175786,3.27071595 9.62735989,1.83230269 7.91856228,1.83230269 C6.20976467,1.83230269 4.81954594,3.27071595 4.81954594,5.03875223 Z"/></svg>