<svg xmlns="http://www.w3.org/2000/svg" width="16" height="16" viewBox="0 0 16 16"><path fill="#37474F" d="M5.93892171,0 C7.95286175,0 9.59133382,1.65760005 9.59133382,3.69505138 C9.59133382,4.81256928 9.0983578,5.81570855 8.32095848,6.49385125 C8.83903654,6.70352862 9.3305848,6.98505795 9.78527691,7.33551677 C10.4041772,7.81254046 10.9301102,8.40644946 11.3341131,9.07459856 L11.3333333,8.16666667 C11.3333333,8.07466667 11.408,8 11.5,8 L11.5,8 L12.5,8 C12.592,8 12.6666667,8.07466667 12.6666667,8.16666667 L12.6666667,8.16666667 L12.6666667,9.11866667 C12.9296667,9.185 13.2216667,9.26966667 13.4433333,9.37766667 L13.4433333,9.37766667 L14.121,8.70066667 C14.186,8.63533333 14.2916667,8.63533333 14.3566667,8.70066667 L14.3566667,8.70066667 L15.2996667,9.643 C15.3646667,9.708 15.3646667,9.81366667 15.2996667,9.87866667 L15.2996667,9.87866667 L14.6223333,10.556 C14.7303333,10.7776667 14.815,11.07 14.8816667,11.3333333 L14.8816667,11.3333333 L15.8333333,11.3333333 C15.9253333,11.3333333 16,11.408 16,11.5003333 L16,11.5003333 L16,12.5003333 C16,12.5923333 15.9253333,12.667 15.8333333,12.667 L15.8333333,12.667 L14.8823333,12.667 C14.8156667,12.9306667 14.7306667,13.223 14.623,13.444 L14.623,13.444 L15.3003333,14.1216667 C15.3653333,14.1866667 15.3653333,14.2923333 15.3003333,14.3573333 L15.3003333,14.3573333 L14.3576667,15.3 C14.2926667,15.365 14.187,15.365 14.122,15.3 L14.122,15.3 L13.444,14.6226667 C13.223,14.73 12.9303333,14.815 12.667,14.882 L12.667,14.882 L12.667,15.8333333 C12.667,15.9253333 12.5923333,16 12.5003333,16 L12.5003333,16 L11.5003333,16 C11.4083333,16 11.3336667,15.9253333 11.3336667,15.8333333 L11.3336667,15.8333333 L11.3336667,14.882 C11.0696667,14.815 10.7773333,14.73 10.5563333,14.6223333 L10.5563333,14.6223333 L9.87866667,15.3 C9.81633333,15.3626667 9.70566667,15.3626667 9.643,15.3 L9.643,15.3 L8.7,14.3573333 C8.635,14.292 8.635,14.1866667 8.7,14.1216667 L8.7,14.1216667 L9.378,13.4436667 C9.27033333,13.2226667 9.18533333,12.9303333 9.11833333,12.6666667 L9.11833333,12.6666667 L8.16666667,12.6666667 C8.07466667,12.6666667 8,12.592 8,12.5 L8,12.5 L8,11.5 C8,11.408 8.07466667,11.3333333 8.16666667,11.3333333 L8.16666667,11.3333333 L9.11833333,11.3333333 C9.185,11.0696667 9.27,10.7773333 9.37766667,10.5563333 L9.37766667,10.5563333 L8.7,9.87866667 C8.635,9.81366667 8.635,9.708 8.7,9.643 L8.7,9.643 L9.48590322,8.85770753 C8.58236524,7.9435991 7.33745952,7.39013635 6.0053292,7.39013635 C3.81853046,7.39013635 1.8744179,8.87453926 1.27761376,11 L0,10.6328127 C0.363747043,9.33742843 1.14875002,8.1705312 2.21043981,7.3471058 C2.64308463,7.01156154 3.10926523,6.73869879 3.60014942,6.53086895 C2.79784729,5.8525247 2.28650959,4.8331272 2.28650959,3.69505138 C2.28650959,1.65760005 3.92498167,0 5.93892171,0 Z M12,10.6666667 C11.2646667,10.6666667 10.6666667,11.265 10.6666667,12 C10.6666667,12.735 11.2646667,13.3333333 12,13.3333333 C12.7353333,13.3333333 13.3333333,12.735 13.3333333,12 C13.3333333,11.265 12.7353333,10.6666667 12,10.6666667 Z M5.93892171,1.34368864 C4.6573235,1.34368864 3.61465945,2.39852503 3.61465945,3.69508497 C3.61465945,4.99164491 4.6573235,6.0464813 5.93892171,6.0464813 C7.22051992,6.0464813 8.26318396,4.99164491 8.26318396,3.69508497 C8.26318396,2.39852503 7.22051992,1.34368864 5.93892171,1.34368864 Z"/></svg>