<svg xmlns="http://www.w3.org/2000/svg" width="16" height="16" viewBox="0 0 16 16"><path fill="#37474F" d="M14.0696858,16 L1.93031418,15.9680361 C1.67484728,15.9680361 1.44258516,15.8680596 1.27420806,15.7068979 C1.1046232,15.5445803 1,15.3205213 1,15.0744033 C1,14.8282853 1.1046232,14.6042263 1.27420806,14.4419086 C1.44258516,14.280747 1.67484728,14.1807704 1.93031612,14.1807704 C2.10062868,14.1807704 5.83698052,14.1914363 13.1393716,14.212768 L13.1393716,7.79460029 L8.43353039,7.80437833 C8.17806349,7.80437833 7.94580137,7.7044018 7.77742426,7.54324013 C7.60783941,7.38092245 7.50321621,7.15686347 7.50321621,6.91074547 L7.50321621,1.78730132 L2.86062836,1.78730132 L2.86062836,15.0744033 C2.86062836,15.3205213 2.75600516,15.5445803 2.58642031,15.7068979 C2.4180432,15.8680596 2.18578108,15.9680361 1.93031418,15.9680361 C1.67484728,15.9680361 1.44258516,15.8680596 1.27420806,15.7068979 C1.1046232,15.5445803 1,15.3205213 1,15.0744033 L1,0.893632861 C1,0.647514859 1.1046232,0.423455874 1.27420806,0.261138202 C1.44258516,0.0999765232 1.67484728,0 1.93031418,0 L9.19227366,0 C9.42315276,0 9.65430942,0.0879912107 9.82527478,0.236735642 L14.702074,4.54151886 C14.8893684,4.7058652 15,4.94455008 15,5.19895551 L15,15.1063671 C15,15.3524851 14.8953768,15.5765441 14.7257919,15.7388618 C14.5574148,15.9000235 14.3251527,16 14.0696858,16 Z M9,2 L9,5.99043176 L13,6 L13,5.53538089 L9,2 Z"/></svg>