<svg xmlns="http://www.w3.org/2000/svg" width="16" height="16" viewBox="0 0 16 16"><path fill="#37474F" d="M14.1278305,15.0588235 L8.5391174,15.0588235 C8.29961718,15.0588235 8.08187144,14.964728 7.92401791,14.8130464 C7.76503211,14.6602768 7.66694786,14.4493978 7.66694786,14.2177573 C7.66694786,13.9861168 7.76503211,13.7752378 7.92401791,13.6224682 C8.08187144,13.4707866 8.29961718,13.3766911 8.53911922,13.3766911 L13.2556609,13.3767228 L13.2556609,7.33609439 L8.84393474,7.34529725 C8.60443452,7.34529725 8.38668878,7.2512017 8.22883525,7.09952012 C8.06984945,6.94675055 7.97176519,6.7358715 7.97176519,6.50423103 L7.97176519,1.68216595 L3.61933909,1.68216595 L3.61933909,7.18767368 C3.61933909,7.41931416 3.52125484,7.6301932 3.36226904,7.78296277 C3.2044155,7.93464435 2.98666976,8.0287399 2.74716955,8.0287399 C2.50766933,8.0287399 2.28992359,7.93464435 2.13207005,7.78296277 C1.97308425,7.6301932 1.875,7.41931416 1.875,7.18767368 L1.875,0.841066222 C1.875,0.609425749 1.97308425,0.398546705 2.13207005,0.245777131 C2.28992359,0.0940955512 2.50766933,0 2.74716955,0 L9.55525656,0 C9.77170571,0 9.98841508,0.0828152571 10.1486951,0.222810016 L14.7206944,4.27437069 C14.8962828,4.4290496 15,4.65369419 15,4.89313459 L15,14.2177573 C15,14.4493978 14.9019157,14.6602768 14.7429299,14.8130464 C14.5850764,14.964728 14.3673307,15.0588235 14.1278305,15.0588235 Z M9.375,1.88235294 L9.375,5.63805343 L13.125,5.64705882 L13.125,5.20977025 L9.375,1.88235294 Z M3.77604021,15.7529095 C3.6239866,15.9055594 3.41417111,16 3.18354096,16 C2.95291081,16 2.74309532,15.9055594 2.59104171,15.7529095 C2.43898809,15.6002596 2.3449164,15.3896213 2.3449164,15.1580867 L2.3449164,13.5477956 L0.838658093,13.5477956 C0.608036037,13.5477956 0.398213338,13.4533514 0.246150909,13.3007014 C0.0940798803,13.1480427 0,12.937397 0,12.7058824 C0,12.4743478 0.0940716947,12.2637095 0.246125309,12.1110596 C0.398178924,11.9584097 0.607994413,11.8639691 0.838624563,11.8639691 L2.3449164,11.8639691 L2.3449164,10.253678 C2.3449164,10.0221434 2.43898809,9.81150512 2.59104171,9.65885521 C2.74309532,9.50620531 2.95291081,9.41176471 3.18354096,9.41176471 C3.41417111,9.41176471 3.6239866,9.50620531 3.77604021,9.65885521 C3.92809383,9.81150512 4.02216552,10.0221434 4.02216552,10.253678 L4.02216552,11.8639691 L5.72387544,11.8639691 C5.95450559,11.8639691 6.16432108,11.9584097 6.31637469,12.1110596 C6.46842831,12.2637095 6.5625,12.4743478 6.5625,12.7058824 C6.5625,12.9374169 6.46842831,13.1480552 6.31637469,13.3007051 C6.16432108,13.453355 5.95450559,13.5477956 5.72387544,13.5477956 L4.02216552,13.5477956 L4.02216552,15.1580867 C4.02216552,15.3896213 3.92809383,15.6002596 3.77604021,15.7529095 Z"/></svg>